<?xml version="1.0" encoding="UTF-8"?>
<svg id="_레이어_1" data-name="레이어 1" xmlns="http://www.w3.org/2000/svg" width="250" height="50" version="1.1" viewBox="0 0 250 50">
  <defs>
    <style>
      .cls-1 {
        fill: #6796bf;
      }

      .cls-1, .cls-2, .cls-3, .cls-4 {
        stroke-width: 0px;
      }

      .cls-2 {
        fill: none;
      }

      .cls-3 {
        fill: #fff;
      }

      .cls-4 {
        fill: #fe6c61;
      }
    </style>
  </defs>
  <g>
    <rect class="cls-2" x="50" width="50" height="50"/>
    <g>
      <circle class="cls-4" cx="75" cy="25" r="17.5"/>
      <path class="cls-3" d="M77.3,25l3.3-3.3c.6-.6.6-1.6,0-2.3s-1.6-.6-2.3,0l-3.3,3.3-3.3-3.3c-.6-.6-1.6-.6-2.3,0s-.6,1.6,0,2.3l3.3,3.3-3.3,3.3c-.6.6-.6,1.6,0,2.3.3.3.7.5,1.1.5s.8-.2,1.1-.5l3.3-3.3,3.3,3.3c.3.3.7.5,1.1.5s.8-.2,1.1-.5c.6-.6.6-1.6,0-2.3l-3.1-3.3Z"/>
    </g>
  </g>
  <g>
    <rect class="cls-2" width="50" height="50"/>
    <g>
      <path class="cls-4" d="M7.6,30l11.4-17.7c2.8-4.4,9.2-4.4,12,0l11.4,17.7c3,4.7-.4,11-6,11H13.6c-5.6,0-9.1-6.2-6-11Z"/>
      <g>
        <path class="cls-3" d="M25,28.1c-.8,0-1.5-.7-1.5-1.5v-6c0-.8.7-1.5,1.5-1.5s1.5.7,1.5,1.5v6c0,.8-.7,1.5-1.5,1.5Z"/>
        <circle class="cls-3" cx="25" cy="31.4" r="1.5"/>
      </g>
    </g>
  </g>
  <g>
    <rect class="cls-2" x="200" width="50" height="50"/>
    <g>
      <path class="cls-1" d="M219.2,40.1l-9.3-9.3c-3.2-3.2-3.2-8.4,0-11.5l9.3-9.3c3.2-3.2,8.4-3.2,11.5,0l9.3,9.3c3.2,3.2,3.2,8.4,0,11.5l-9.3,9.3c-3.1,3.2-8.3,3.2-11.5,0Z"/>
      <g>
        <path class="cls-3" d="M225,22.9c.8,0,1.5.7,1.5,1.5v6c0,.8-.7,1.5-1.5,1.5s-1.5-.7-1.5-1.5v-6c0-.8.7-1.5,1.5-1.5Z"/>
        <circle class="cls-3" cx="225" cy="19.6" r="1.5"/>
      </g>
    </g>
  </g>
  <g>
    <rect class="cls-2" x="100" width="50" height="50"/>
    <g>
      <circle class="cls-1" cx="125" cy="25" r="17.5"/>
      <path class="cls-3" d="M123.9,31c-.4,0-.7-.1-1-.4l-4.3-4.3c-.6-.6-.6-1.5,0-2,.6-.6,1.5-.6,2,0l3.2,3.2,5.4-6c.5-.6,1.4-.6,2-.1s.6,1.4.1,2l-6.4,7.1c-.2.3-.5.5-1,.5,0,0,0,0,0,0Z"/>
    </g>
  </g>
  <g>
    <rect class="cls-2" x="150" width="50" height="50"/>
    <g>
      <path class="cls-1" d="M157.5,32.8v-15.6c0-5.3,4.3-9.7,9.7-9.7h15.6c5.3,0,9.7,4.3,9.7,9.7v15.6c0,5.3-4.3,9.7-9.7,9.7h-15.6c-5.4,0-9.7-4.3-9.7-9.7Z"/>
      <g>
        <path class="cls-3" d="M173.9,31.8c-.2-.1-.4-.3-.5-.5s-.2-.5-.2-.7c0-.3.1-.5.2-.7.1-.2.3-.4.5-.5s.5-.2.7-.2c.3,0,.5.1.7.2s.4.3.5.5.2.5.2.7c0,.3-.1.5-.2.7-.1.2-.3.4-.5.5s-.5.2-.7.2c-.3,0-.5-.1-.7-.2Z"/>
        <path class="cls-3" d="M175.7,26.6h0c0,.5-.4.8-.8.8h-.6c-.5,0-.8-.4-.8-.8h0c0-.7.1-1.1.2-1.6.1-.4.3-.8.5-1,.2-.3.5-.5.9-.8.3-.2.5-.4.7-.5.2-.2.3-.4.4-.6.1-.2.2-.4.2-.7s-.1-.5-.2-.7c-.1-.2-.3-.4-.5-.5s-.5-.2-.8-.2-.5.1-.8.2c-.2.1-.4.3-.6.5h-.1c-.2.5-.6.8-1,.8h-.1c-.9,0-1.4-.9-1-1.7.1-.1.1-.2.2-.3.4-.5.9-.9,1.5-1.2.6-.3,1.3-.4,2-.4s1.5.1,2.2.4c.6.3,1.1.7,1.5,1.2.3.5.5,1.1.5,1.8s-.2,1.3-.5,1.8-.8.9-1.4,1.3c-.3.2-.6.4-.8.6s-.4.4-.5.7c-.3.3-.3.5-.3.9Z"/>
      </g>
    </g>
  </g>
</svg>