<?xml version="1.0" encoding="UTF-8"?>
<svg id="_레이어_1" data-name="레이어 1" xmlns="http://www.w3.org/2000/svg" width="20" height="20" version="1.1" viewBox="0 0 20 20">
  <defs>
    <style>
      .cls-1 {
        fill: #1f2933;
        fill-rule: evenodd;
      }

      .cls-1, .cls-2 {
        stroke-width: 0px;
      }

      .cls-2 {
        fill: none;
      }
    </style>
  </defs>
  <g>
    <path class="cls-1" d="M9.8,4.4c-3.2,0-5.8,2.6-5.8,5.8s2.6,5.8,5.8,5.8,2.2-.3,3.1-.9l-3.1-4.9v-5.8Z"/>
    <path class="cls-1" d="M10.9,9.5l4.4,1.1c0,0,.2,0,.2-.1,0-.4.1-.8.1-1.2,0-2.8-2.3-5.1-5.1-5.2,0,0-.2,0-.2.2v4.6c0,.3.2.5.5.6Z"/>
    <path class="cls-1" d="M15.9,11.6l-4.5-1.2c-.1,0-.2.1-.2.2l2.4,4.1c0,0,.1,0,.2,0,1-.7,1.8-1.8,2.1-3,0,0,0-.2-.1-.2Z"/>
  </g>
  <rect class="cls-2" width="20" height="20"/>
</svg>