<?xml version="1.0" encoding="UTF-8"?>
<svg id="_레이어_1" data-name=" 레이어 1" xmlns="http://www.w3.org/2000/svg" width="15" height="15" version="1.1" viewBox="0 0 15 15">
  <defs>
    <style>
      .cls-1 {
        fill: #fff;
        stroke-width: 0px;
      }
    </style>
  </defs>
  <path class="cls-1" d="M6.2,12c-.2,0-.3,0-.5-.1-.3,0-.6-.2-.7-.5l-2.5-2.9c-.5-.7-.5-1.6,0-2.2.4-.5.9-.6,1.1-.6.4,0,.8.2,1.1.5l1.5,1.7,4-4.5c.2-.3.6-.5,1.1-.5s.8.2,1.1.4c0,0,0,0,0,.1.4.6.4,1.5,0,2.1l-5.2,5.7c-.2.3-.5.4-.7.5-.1,0-.3.1-.4.1Z"/>
</svg>