<?xml version="1.0" encoding="UTF-8"?>
<svg id="_레이어_1" data-name="레이어 1" xmlns="http://www.w3.org/2000/svg" width="15" height="15" version="1.1" viewBox="0 0 15 15">
  <defs>
    <style>
      .cls-1 {
        fill: none;
      }

      .cls-1, .cls-2 {
        stroke-width: 0px;
      }

      .cls-2 {
        fill: #fff;
      }
    </style>
  </defs>
  <path class="cls-2" d="M8.4,7.5l4.3-4.3c.2-.2.2-.6,0-.9s-.6-.2-.9,0l-4.3,4.3L3.2,2.3c-.2-.2-.6-.2-.9,0s-.2.6,0,.9l4.3,4.3-4.3,4.3c-.2.2-.2.6,0,.9.1.1.3.2.4.2s.3,0,.4-.2l4.3-4.3,4.3,4.3c.1.1.3.2.4.2s.3,0,.4-.2c.2-.2.2-.6,0-.9l-4.3-4.3Z"/>
  <rect class="cls-1" y="0" width="15" height="15"/>
</svg>