<?xml version="1.0" encoding="UTF-8"?>
<svg id="_레이어_1" data-name="레이어 1" xmlns="http://www.w3.org/2000/svg" width="40" height="40" version="1.1" viewBox="0 0 40 40">
  <defs>
    <style>
      .cls-1 {
        fill: none;
      }

      .cls-1, .cls-2 {
        stroke-width: 0px;
      }

      .cls-2 {
        fill: #fff;
      }
    </style>
  </defs>
  <path class="cls-2" d="M17.2,6.5h13c.4,0,.8.3.8.8v25.4c0,.4-.3.8-.8.8H9.7c-.4,0-.8-.3-.8-.8V14.4s8.3-7.9,8.3-7.9ZM11,15.2h6.9s0-6.5,0-6.5l-6.9,6.5ZM11,17.3v14.2s17.6,0,17.6,0c.3,0,.5-.2.5-.5V8.5s-9.1,0-9.1,0v7.9c0,.5-.4.9-.9.9h-8.1Z"/>
  <path class="cls-2" d="M26.4,28.4l-2.4-3.7c-.2-.3-.6-.3-.8,0l-1.9,3-3.2-4.9c-.2-.3-.6-.3-.8,0l-3.7,5.7c-.2.3,0,.7.4.7h7.1s0,0,0,0h4.8c.4,0,.6-.4.4-.7Z"/>
  <circle class="cls-2" cx="24.2" cy="20.8" r="1.7"/>
  <rect class="cls-1" y="0" width="40" height="40"/>
</svg>