<?xml version="1.0" encoding="UTF-8"?>
<svg id="_레이어_1" data-name="레이어 1" xmlns="http://www.w3.org/2000/svg" width="20" height="20" version="1.1" viewBox="0 0 20 20">
  <defs>
    <style>
      .cls-1 {
        fill: none;
      }

      .cls-1, .cls-2 {
        stroke-width: 0px;
      }

      .cls-2 {
        fill: #ff4b5c;
      }
    </style>
  </defs>
  <g>
    <polygon class="cls-2" points="12.7 5.1 12.7 3.9 7.5 3.9 7.5 5.1 5.6 5.1 5.6 6.2 14.6 6.2 14.6 5.1 12.7 5.1"/>
    <path class="cls-2" d="M12.3,15.9h-4.5c-1.2,0-2.3-1-2.3-2.3v-6.7h9v6.7c0,1.2-1,2.3-2.3,2.3ZM8.8,13.7v-4.4c0-.3-.3-.6-.6-.6h0c-.3,0-.6.3-.6.6v4.4c0,.3.3.6.6.6h0c.3,0,.6-.3.6-.6ZM12.7,13.7v-4.4c0-.3-.3-.6-.6-.6h0c-.3,0-.6.3-.6.6v4.4c0,.3.3.6.6.6h0c.3,0,.6-.3.6-.6Z"/>
  </g>
  <rect class="cls-1" width="20" height="20"/>
</svg>