<?xml version="1.0" encoding="UTF-8"?>
<svg id="_레이어_1" data-name="레이어 1" xmlns="http://www.w3.org/2000/svg" width="20" height="20" version="1.1" viewBox="0 0 20 20">
  <defs>
    <style>
      .cls-1 {
        fill: none;
      }

      .cls-1, .cls-2 {
        stroke-width: 0px;
      }

      .cls-2 {
        fill: #fff;
      }
    </style>
  </defs>
  <g>
    <path class="cls-2" d="M10,17.5c-4.1,0-7.5-3.4-7.5-7.5s3.4-7.5,7.5-7.5,7.5,3.4,7.5,7.5-3.4,7.5-7.5,7.5ZM10,3.3c-3.7,0-6.7,3-6.7,6.7s3,6.7,6.7,6.7,6.7-3,6.7-6.7-3-6.7-6.7-6.7Z"/>
    <path class="cls-2" d="M7.4,14.8c-.2,0-.3,0-.5-.2-.3-.2-.4-.6-.3-.9l.8-2.5-2.1-1.5c-.3-.2-.4-.6-.3-.9.1-.3.4-.6.8-.6h2.6l.8-2.5c.1-.3.4-.6.8-.6s.7.2.8.6l.8,2.5h2.6c.4,0,.7.2.8.6.1.3,0,.7-.3.9l-2.1,1.5.8,2.5c.1.3,0,.7-.3.9-.3.2-.7.2-.9,0l-2.1-1.5-.2-.3.2.3-2.1,1.5c-.1.1-.3.2-.5.2ZM10,12.3c.2,0,.3,0,.5.2l2.1,1.5-.8-2.5c-.1-.3,0-.7.3-.9l2.1-1.5h-2.6c-.3,0-.7-.2-.8-.6l-.8-2.5-.8,2.5c-.1.3-.4.6-.8.6h-2.6l2.1,1.6c.3.2.4.6.3.9l-.8,2.5,2.1-1.5c.1-.1.3-.2.5-.2Z"/>
  </g>
  <rect class="cls-1" width="20" height="20"/>
</svg>