<?xml version="1.0" encoding="UTF-8"?>
<svg id="_레이어_1" data-name=" 레이어 1" xmlns="http://www.w3.org/2000/svg" width="120" height="140" version="1.1" viewBox="0 0 120 140">
  <defs>
    <style>
      .cls-1, .cls-2, .cls-3, .cls-4, .cls-5, .cls-6, .cls-7, .cls-8, .cls-9, .cls-10, .cls-11, .cls-12 {
        stroke-width: 0px;
      }

      .cls-1, .cls-2, .cls-6, .cls-7, .cls-8, .cls-10 {
        fill-rule: evenodd;
      }

      .cls-1, .cls-12 {
        fill: #fff;
      }

      .cls-2, .cls-9 {
        fill: #1f2933;
      }

      .cls-3, .cls-6 {
        fill: #6796bf;
      }

      .cls-4 {
        fill: #2b3036;
      }

      .cls-5 {
        fill: none;
      }

      .cls-7, .cls-11 {
        fill: #00172d;
      }

      .cls-8 {
        fill: #fbbc00;
      }

      .cls-10 {
        fill: #f5f5f5;
      }
    </style>
  </defs>
  <g>
    <g>
      <path class="cls-8" d="M109.7,36.3l-3.8-5.6c-1.1-1.8-.8-4.2.7-5.7h0c1.8-1.8,4.8-1.8,6.7,0h0c1.5,1.5,1.8,3.9.7,5.7l-3.8,5.6c0,.2-.4.2-.6,0h.1ZM110,25.8c-1.5,0-2.7,1.2-2.7,2.7s1.2,2.7,2.7,2.7,2.7-1.2,2.7-2.7-1.2-2.7-2.7-2.7Z"/>
      <rect class="cls-5" x="100" y="20" width="20" height="20"/>
    </g>
    <g>
      <path class="cls-6" d="M89.7,36.3l-3.8-5.6c-1.1-1.8-.8-4.2.7-5.7h0c1.8-1.8,4.8-1.8,6.7,0h0c1.5,1.5,1.8,3.9.7,5.7l-3.8,5.6c0,.2-.4.2-.6,0h.1ZM90,25.8c-1.5,0-2.7,1.2-2.7,2.7s1.2,2.7,2.7,2.7,2.7-1.2,2.7-2.7-1.2-2.7-2.7-2.7Z"/>
      <rect class="cls-5" x="80" y="20" width="20" height="20"/>
    </g>
    <g>
      <path class="cls-10" d="M69.7,36.3l-3.8-5.6c-1.1-1.8-.8-4.2.7-5.7h0c1.8-1.8,4.8-1.8,6.7,0h0c1.5,1.5,1.8,3.9.7,5.7l-3.8,5.6c0,.2-.4.2-.6,0h.1ZM70,25.8c-1.5,0-2.7,1.2-2.7,2.7s1.2,2.7,2.7,2.7,2.7-1.2,2.7-2.7-1.2-2.7-2.7-2.7Z"/>
      <rect class="cls-5" x="60" y="20" width="20" height="20"/>
    </g>
    <g>
      <rect class="cls-5" x="20" y="20" width="20" height="20"/>
      <g>
        <path class="cls-9" d="M36.3,36h-12.6c-.3,0-.6-.3-.6-.6v-3.8c0-.3.3-.6.6-.6s.6.3.6.6v3.2h11.4v-3.2c0-.3.3-.6.6-.6s.6.3.6.6v3.8c0,.3-.3.6-.6.6Z"/>
        <path class="cls-9" d="M25.8,28.7c.2.2.6.2.8,0l2.7-2.7v6.6c0,.2.3.4.6.4s.6-.2.6-.4v-6.6l2.7,2.7c.2.2.6.2.8,0s.2-.6,0-.8l-3.7-3.7c-.1-.1-.3-.2-.4-.2s-.3,0-.4.2l-3.7,3.7c-.2.2-.2.6,0,.8Z"/>
      </g>
    </g>
    <g>
      <rect class="cls-5" y="20" width="20" height="20"/>
      <g>
        <path class="cls-12" d="M16.3,36H3.7c-.3,0-.6-.3-.6-.6v-3.8c0-.3.3-.6.6-.6s.6.3.6.6v3.2h11.4v-3.2c0-.3.3-.6.6-.6s.6.3.6.6v3.8c0,.3-.3.6-.6.6Z"/>
        <path class="cls-12" d="M5.8,28.7c.2.2.6.2.8,0l2.7-2.7v6.6c0,.2.3.4.6.4s.6-.2.6-.4v-6.6l2.7,2.7c.2.2.6.2.8,0s.2-.6,0-.8l-3.7-3.7c-.1-.1-.3-.2-.4-.2s-.3,0-.4.2l-3.7,3.7c-.2.2-.2.6,0,.8Z"/>
      </g>
    </g>
    <g>
      <path class="cls-12" d="M54.5,26.5c-1.3-1.3-2.9-2-4.6-2v-1.3c0-.2-.2-.2-.3-.1l-3.6,2.7v.2h0l4.4,1c0,0,.3-.1.2-.3l-.5-1c1.2,0,2.3.5,3.2,1.4,2,2,1.9,5.3-.3,7.2-1.8,1.6-4.5,1.6-6.4,0-.9-.8-1.5-1.8-1.7-2.9,0-.3-.3-.6-.7-.6s-.7.4-.6.8c.2,1.2.8,2.4,1.7,3.3,2.5,2.5,6.6,2.4,9-.2,2.2-2.4,2.2-6.1,0-8.5l.2.3Z"/>
      <rect class="cls-5" x="40" y="20" width="20" height="20"/>
    </g>
  </g>
  <g>
    <g>
      <g>
        <path class="cls-3" d="M48.4,13.3l-4.6-2.9c-.3-.2-.3-.5,0-.7l4.6-2.9c.3-.2.6,0,.6.4v5.8c0,.3-.4.5-.6.4h0Z"/>
        <path class="cls-3" d="M55.8,13.3l-4.6-2.9c-.3-.2-.3-.5,0-.7l4.6-2.9c.3-.2.6,0,.6.4v5.8c0,.3-.4.5-.6.4h0Z"/>
      </g>
      <rect class="cls-5" x="40" width="20" height="20"/>
    </g>
    <g>
      <g>
        <path class="cls-12" d="M68.4,13.3l-4.6-2.9c-.3-.2-.3-.5,0-.7l4.6-2.9c.3-.2.6,0,.6.4v5.8c0,.3-.4.5-.6.4h0Z"/>
        <path class="cls-12" d="M75.8,13.3l-4.6-2.9c-.3-.2-.3-.5,0-.7l4.6-2.9c.3-.2.6,0,.6.4v5.8c0,.3-.4.5-.6.4h0Z"/>
      </g>
      <rect class="cls-5" x="60" width="20" height="20"/>
    </g>
    <g>
      <g>
        <path class="cls-1" d="M93.2,16h-6.4c-.5,0-1-.4-1-.9l-.6-7c0-.6.4-1.1,1-1.1h7.6c.6,0,1,.5,1,1.1l-.6,7c0,.5-.5.9-1,.9ZM88.1,8.5h-.8v6h.8v-6ZM90.4,8.5h-.8v6h.8v-6ZM92.6,8.5h-.8v6h.8v-6Z"/>
        <path class="cls-1" d="M94.1,4.8h-1.1c0-.4-.3-.8-.8-.8h-4.5c-.4,0-.8.3-.8.8h-1.1c-.4,0-.8.3-.8.8s.3.8.8.8h8.2c.4,0,.8-.3.8-.8s-.3-.8-.8-.8h.1Z"/>
      </g>
      <rect class="cls-5" x="80" width="20" height="20"/>
    </g>
    <g>
      <g>
        <path class="cls-2" d="M113.2,16h-6.4c-.5,0-1-.4-1-.9l-.6-7c0-.6.4-1.1,1-1.1h7.6c.6,0,1,.5,1,1.1l-.6,7c0,.5-.5.9-1,.9ZM108.1,8.5h-.8v6h.8v-6ZM110.4,8.5h-.8v6h.8v-6ZM112.6,8.5h-.8v6h.8v-6Z"/>
        <path class="cls-2" d="M114.1,4.8h-1.1c0-.4-.3-.8-.8-.8h-4.5c-.4,0-.8.3-.8.8h-1.1c-.4,0-.8.3-.8.8s.3.8.8.8h8.2c.4,0,.8-.3.8-.8s-.3-.8-.8-.8h.1Z"/>
      </g>
      <rect class="cls-5" x="100" width="20" height="20"/>
    </g>
    <g>
      <polygon class="cls-4" points="15.4 5.4 14.6 4.6 10 9.3 5.4 4.6 4.6 5.4 9.3 10 4.6 14.6 5.4 15.4 10 10.7 14.6 15.4 15.4 14.6 10.7 10 15.4 5.4"/>
      <rect class="cls-5" width="20" height="20"/>
    </g>
    <g>
      <polygon class="cls-12" points="35.4 5.4 34.6 4.6 30 9.3 25.4 4.6 24.6 5.4 29.3 10 24.6 14.6 25.4 15.4 30 10.7 34.6 15.4 35.4 14.6 30.7 10 35.4 5.4"/>
      <rect class="cls-5" x="20" width="20" height="20"/>
    </g>
  </g>
  <g>
    <polygon class="cls-9" points="76 69.6 70.4 69.6 70.4 64 69.6 64 69.6 69.6 64 69.6 64 70.4 69.6 70.4 69.6 76 70.4 76 70.4 70.4 76 70.4 76 69.6"/>
    <rect class="cls-5" x="60" y="60" width="20" height="20"/>
  </g>
  <g>
    <g>
      <path class="cls-2" d="M85.5,74.6h0c0,0,.2-2.3.2-2.3l6.7-8,2.2,1.9-6.7,8-2.2.6h0v-.2Z"/>
      <rect class="cls-9" x="82" y="74.6" width="16.1" height="1.1"/>
    </g>
    <rect class="cls-5" x="80" y="60" width="20" height="20"/>
  </g>
  <g>
    <path class="cls-9" d="M54.8,71.1H22.1c-.1-1.2-1-2.1-2.2-2.2v-5.9h-.5v5.9c-1.2,0-2.1,1-2.2,2.2H5.2v.5h11.9c.1,1.2,1,2.1,2.2,2.2v3.2h.5v-3.2c1.2,0,2.1-1,2.2-2.2h32.7v-.5h0ZM20.6,71.1h-.7v-.7c.3,0,.6.4.7.7ZM19.4,70.4v.7h-.7c0-.3.4-.6.7-.7ZM18.7,71.6h.7v.7c-.3,0-.6-.4-.7-.7ZM19.9,72.3v-.7h.7c0,.3-.4.6-.7.7Z"/>
    <rect class="cls-5" y="60" width="60" height="20"/>
  </g>
  <g>
    <path class="cls-12" d="M113.2,64.5c.3,0,.7.2.9.5.3.5.2,1.1-.3,1.5l-5,3.6,5,3.6c.5.3.6,1,.3,1.5s-1,.6-1.5.3l-6.3-4.4c-.3-.2-.5-.5-.5-.9s.2-.7.5-.9l6.3-4.4c.2,0,.4-.2.6-.2v-.2Z"/>
    <rect class="cls-5" x="100.1" y="60" width="20" height="20"/>
  </g>
  <g>
    <g>
      <path class="cls-1" d="M16.7,95.1l-3.4-3.4c1.4-2.1,1.1-5-.8-7s-5.7-2.1-7.9,0c-2.1,2.1-2.1,5.7,0,7.9,2,2,5.1,2.1,7.3.5l3.4,3.4c.4.4,1,.4,1.4,0,.3-.5.3-1,0-1.4ZM5.9,91.4c-1.5-1.5-1.5-3.9,0-5.4s3.9-1.5,5.4,0,1.5,3.9,0,5.4-3.9,1.5-5.4,0Z"/>
      <rect class="cls-5" y="80" width="20" height="20"/>
    </g>
    <g>
      <g>
        <path class="cls-1" d="M37.4,95.7l-2.3-2.3c.6-.9.5-2.2-.3-3s-2.5-.9-3.4,0-.9,2.5,0,3.4,2.2.9,3.2.2l2.3,2.3c.2.2.4.2.6,0,0-.2,0-.4,0-.6h0ZM32,93.3c-.6-.6-.6-1.7,0-2.3.6-.6,1.7-.6,2.3,0s.6,1.7,0,2.3-1.7.6-2.3,0Z"/>
        <path class="cls-1" d="M26.7,94.4l-2.6,1.4c-.7.4-1.7,0-1.7-1v-8.7c0-.4.2-.8.6-1l3.7-2v11.2h0Z"/>
        <path class="cls-1" d="M31.9,95.4v1.4l-4.3-2.4v-11.2l4.3,2.4v3c-.5.2-1,.5-1.4.9-1.4,1.4-1.4,3.7,0,5.1.4.4.9.7,1.4.9h0Z"/>
        <path class="cls-1" d="M36.9,94.3c0-.2,0-.3,0-.5v-8.7c0-.8-.9-1.4-1.7-1l-2.6,1.4v2.9c1,0,2.1.4,2.7,1,1.1,1.1,1.4,2.8.7,4.1l.7.7h0Z"/>
      </g>
      <rect class="cls-5" x="20" y="80" width="20" height="20"/>
    </g>
    <g>
      <rect class="cls-5" x="40" y="80" width="20" height="20"/>
      <g>
        <polygon class="cls-1" points="50 89.8 42 87.5 50 85 58 87.5 50 89.8"/>
        <polygon class="cls-1" points="50 90.5 44.6 89.1 42 90.1 50 92.4 58 90.1 55.4 89.1 50 90.5"/>
        <polygon class="cls-1" points="50 93.1 44.6 91.7 42 92.7 50 95 58 92.7 55.4 91.7 50 93.1"/>
      </g>
    </g>
    <g>
      <g>
        <g>
          <path class="cls-12" d="M67.6,85.7h8.1c.4,0,.8.4.8.8h0c0,.4-.4.8-.8.8h-8.1c-.4,0-.8-.4-.8-.8h0c0-.4.4-.8.8-.8Z"/>
          <path class="cls-12" d="M64.6,85.4h0c.6,0,1.1.5,1.1,1.1h0c0,.6-.5,1.1-1.1,1.1h0c-.6,0-1.1-.5-1.1-1.1h0c0-.6.5-1.1,1.1-1.1Z"/>
        </g>
        <g>
          <path class="cls-12" d="M67.6,89.2h8.1c.4,0,.8.4.8.8h0c0,.4-.4.8-.8.8h-8.1c-.4,0-.8-.4-.8-.8h0c0-.4.4-.8.8-.8Z"/>
          <path class="cls-12" d="M64.6,88.9h0c.6,0,1.1.5,1.1,1.1h0c0,.6-.5,1.1-1.1,1.1h0c-.6,0-1.1-.5-1.1-1.1h0c0-.6.5-1.1,1.1-1.1Z"/>
        </g>
        <g>
          <path class="cls-12" d="M67.6,92.7h8.1c.4,0,.8.4.8.8h0c0,.4-.4.8-.8.8h-8.1c-.4,0-.8-.4-.8-.8h0c0-.4.4-.8.8-.8Z"/>
          <path class="cls-12" d="M64.6,92.4h0c.6,0,1.1.5,1.1,1.1h0c0,.6-.5,1.1-1.1,1.1h0c-.6,0-1.1-.5-1.1-1.1h0c0-.6.5-1.1,1.1-1.1Z"/>
        </g>
      </g>
      <rect class="cls-5" x="60" y="80" width="20" height="20"/>
    </g>
    <g>
      <rect class="cls-5" x="100" y="80" width="20" height="20"/>
      <g>
        <path class="cls-12" d="M116.4,93.4c0,.3-.2.5-.3.8l.5.7-.9.9-.7-.5c-.2,0-.5.3-.8.3l-.2.8h-1.3l-.2-.8c-.3,0-.5-.2-.8-.3l-.7.5-.9-.9.5-.7c0-.2-.3-.5-.3-.8l-.8-.2v-1.3l.8-.2c0-.3.2-.5.3-.8l-.5-.7.9-.9.7.5c.2,0,.5-.3.8-.3l.2-.8h1.3l.2.8c.3,0,.5.2.8.3l.7-.5.9.9-.5.7c0,.2.3.5.3.8l.8.2v1.3l-.8.2ZM113.4,90.9c-.9,0-1.7.8-1.7,1.7s.8,1.7,1.7,1.7,1.7-.8,1.7-1.7-.8-1.7-1.7-1.7Z"/>
        <g>
          <path class="cls-12" d="M104.7,84.6c0-.3.2-.5.5-.5h6.6c.3,0,.5.2.5.5v4.9h-3.4l-1.8-2.2h-2.5v-2.7h.1ZM112.3,94.7h-8.5c-.3,0-.5-.2-.5-.5v-5.8c0-.3.2-.5.5-.5h3.1l1.6,2c0,0,.2.2.4.2h4.2c.3,0,.5.2.5.5h.5v-.2c0-.5-.5-.8-1-.8h-.3v-4.9c0-.6-.5-1-1-1h-6.6c-.6,0-1,.5-1,1v2.7h-.3c-.6,0-1,.5-1,1v5.8c0,.6.5,1,1,1h8.5v-.5h0Z"/>
          <path class="cls-12" d="M105.9,85.3h5c.2,0,.3.1.3.3h0c0,.2-.1.3-.3.3h-5c-.2,0-.3-.1-.3-.3h0c0-.2.1-.3.3-.3Z"/>
          <path class="cls-12" d="M108.7,87.2h2.2c.2,0,.3.1.3.3h0c0,.2-.1.3-.3.3h-2.2c-.2,0-.3-.1-.3-.3h0c0-.2.1-.3.3-.3Z"/>
        </g>
      </g>
    </g>
    <g>
      <g>
        <rect class="cls-12" x="84" y="86.1" width="12" height="1.5" rx=".5" ry=".5"/>
        <rect class="cls-12" x="84" y="89.2" width="12" height="1.5" rx=".5" ry=".5"/>
        <rect class="cls-12" x="84" y="92.4" width="12" height="1.5" rx=".5" ry=".5"/>
      </g>
      <rect class="cls-5" x="80" y="80" width="20" height="20"/>
    </g>
  </g>
  <g>
    <g>
      <g>
        <g>
          <path class="cls-3" d="M67.6,105.7h8.1c.4,0,.8.4.8.8h0c0,.4-.4.8-.8.8h-8.1c-.4,0-.8-.4-.8-.8h0c0-.4.4-.8.8-.8Z"/>
          <path class="cls-3" d="M64.6,105.5h0c.6,0,1.1.5,1.1,1.1h0c0,.6-.5,1.1-1.1,1.1h0c-.6,0-1.1-.5-1.1-1.1h0c0-.6.5-1.1,1.1-1.1Z"/>
        </g>
        <g>
          <path class="cls-3" d="M67.6,109.2h8.1c.4,0,.8.4.8.8h0c0,.4-.4.8-.8.8h-8.1c-.4,0-.8-.4-.8-.8h0c0-.4.4-.8.8-.8Z"/>
          <path class="cls-3" d="M64.6,108.9h0c.6,0,1.1.5,1.1,1.1h0c0,.6-.5,1.1-1.1,1.1h0c-.6,0-1.1-.5-1.1-1.1h0c0-.6.5-1.1,1.1-1.1Z"/>
        </g>
        <g>
          <path class="cls-3" d="M67.6,112.7h8.1c.4,0,.8.4.8.8h0c0,.4-.4.8-.8.8h-8.1c-.4,0-.8-.4-.8-.8h0c0-.4.4-.8.8-.8Z"/>
          <path class="cls-3" d="M64.6,112.4h0c.6,0,1.1.5,1.1,1.1h0c0,.6-.5,1.1-1.1,1.1h0c-.6,0-1.1-.5-1.1-1.1h0c0-.6.5-1.1,1.1-1.1Z"/>
        </g>
      </g>
      <rect class="cls-5" x="60" y="100" width="20" height="20"/>
    </g>
    <g>
      <path class="cls-6" d="M16.7,115.1l-3.4-3.4c1.4-2.1,1.1-5-.8-7s-5.7-2.1-7.9,0c-2.1,2.1-2.1,5.7,0,7.9,2,2,5.1,2.1,7.3.5l3.4,3.4c.4.4,1,.4,1.4,0,.3-.5.3-1,0-1.4ZM5.9,111.4c-1.5-1.5-1.5-3.9,0-5.4s3.9-1.5,5.4,0,1.5,3.9,0,5.4-3.9,1.5-5.4,0Z"/>
      <rect class="cls-5" y="100" width="20" height="20"/>
    </g>
    <g>
      <g>
        <path class="cls-6" d="M37.4,115.7l-2.3-2.3c.6-.9.5-2.2-.3-3s-2.5-.9-3.4,0-.9,2.5,0,3.4,2.2.9,3.2.2l2.3,2.3c.2.2.4.2.6,0,0-.2,0-.4,0-.6h0ZM32,113.3c-.6-.6-.6-1.7,0-2.3.6-.6,1.7-.6,2.3,0s.6,1.7,0,2.3-1.7.6-2.3,0Z"/>
        <path class="cls-6" d="M26.7,114.4l-2.6,1.4c-.7.4-1.7,0-1.7-1v-8.7c0-.4.2-.8.6-1l3.7-2v11.2h0Z"/>
        <path class="cls-6" d="M31.9,115.4v1.4l-4.3-2.4v-11.2l4.3,2.4v3c-.5.2-1,.5-1.4.9-1.4,1.4-1.4,3.7,0,5.1.4.4.9.7,1.4.9h0Z"/>
        <path class="cls-6" d="M36.9,114.3c0-.2,0-.3,0-.5v-8.7c0-.8-.9-1.4-1.7-1l-2.6,1.4v2.9c1,0,2.1.4,2.7,1,1.1,1.1,1.4,2.8.7,4.1l.7.7h0Z"/>
      </g>
      <rect class="cls-5" x="20" y="100" width="20" height="20"/>
    </g>
    <g>
      <rect class="cls-5" x="40" y="100" width="20" height="20"/>
      <g>
        <polygon class="cls-6" points="50 109.8 42 107.5 50 105 58 107.5 50 109.8"/>
        <polygon class="cls-6" points="50 110.5 44.6 109.1 42 110.1 50 112.4 58 110.1 55.4 109.1 50 110.5"/>
        <polygon class="cls-6" points="50 113.1 44.6 111.7 42 112.7 50 115 58 112.7 55.4 111.7 50 113.1"/>
      </g>
    </g>
    <g>
      <rect class="cls-5" x="100" y="100" width="20" height="20"/>
      <g>
        <path class="cls-3" d="M116.4,113.4c0,.3-.2.5-.3.8l.5.7-.9.9-.7-.5c-.2,0-.5.3-.8.3l-.2.8h-1.3l-.2-.8c-.3,0-.5-.2-.8-.3l-.7.5-.9-.9.5-.7c0-.2-.3-.5-.3-.8l-.8-.2v-1.3l.8-.2c0-.3.2-.5.3-.8l-.5-.7.9-.9.7.5c.2,0,.5-.3.8-.3l.2-.8h1.3l.2.8c.3,0,.5.2.8.3l.7-.5.9.9-.5.7c0,.2.3.5.3.8l.8.2v1.3l-.8.2ZM113.4,110.9c-.9,0-1.7.8-1.7,1.7s.8,1.7,1.7,1.7,1.7-.8,1.7-1.7-.8-1.7-1.7-1.7Z"/>
        <g>
          <path class="cls-3" d="M104.7,104.6c0-.3.2-.5.5-.5h6.6c.3,0,.5.2.5.5v4.9h-3.4l-1.8-2.2h-2.5v-2.7h.1ZM112.3,114.7h-8.5c-.3,0-.5-.2-.5-.5v-5.8c0-.3.2-.5.5-.5h3.1l1.6,2c0,0,.2.2.4.2h4.2c.3,0,.5.2.5.5h.5v-.2c0-.5-.5-.8-1-.8h-.3v-4.9c0-.6-.5-1-1-1h-6.6c-.6,0-1,.5-1,1v2.7h-.3c-.6,0-1,.5-1,1v5.8c0,.6.5,1,1,1h8.5v-.5h0Z"/>
          <path class="cls-3" d="M105.9,105.3h5c.2,0,.3.1.3.3h0c0,.2-.1.3-.3.3h-5c-.2,0-.3-.1-.3-.3h0c0-.2.1-.3.3-.3Z"/>
          <path class="cls-3" d="M108.7,107.2h2.2c.2,0,.3.1.3.3h0c0,.2-.1.3-.3.3h-2.2c-.2,0-.3-.1-.3-.3h0c0-.2.1-.3.3-.3Z"/>
        </g>
      </g>
    </g>
    <g>
      <g>
        <rect class="cls-3" x="84" y="106.1" width="12" height="1.5" rx=".5" ry=".5"/>
        <rect class="cls-3" x="84" y="109.2" width="12" height="1.5" rx=".5" ry=".5"/>
        <rect class="cls-3" x="84" y="112.4" width="12" height="1.5" rx=".5" ry=".5"/>
      </g>
      <rect class="cls-5" x="80" y="100" width="20" height="20"/>
    </g>
  </g>
  <g>
    <g>
      <g>
        <g>
          <path class="cls-11" d="M67.6,125.7h8.1c.4,0,.8.4.8.8h0c0,.4-.4.8-.8.8h-8.1c-.4,0-.8-.4-.8-.8h0c0-.4.4-.8.8-.8Z"/>
          <path class="cls-11" d="M64.6,125.4h0c.6,0,1.1.5,1.1,1.1h0c0,.6-.5,1.1-1.1,1.1h0c-.6,0-1.1-.5-1.1-1.1h0c0-.6.5-1.1,1.1-1.1Z"/>
        </g>
        <g>
          <path class="cls-11" d="M67.6,129.2h8.1c.4,0,.8.4.8.8h0c0,.4-.4.8-.8.8h-8.1c-.4,0-.8-.4-.8-.8h0c0-.4.4-.8.8-.8Z"/>
          <path class="cls-11" d="M64.6,128.9h0c.6,0,1.1.5,1.1,1.1h0c0,.6-.5,1.1-1.1,1.1h0c-.6,0-1.1-.5-1.1-1.1h0c0-.6.5-1.1,1.1-1.1Z"/>
        </g>
        <g>
          <path class="cls-11" d="M67.6,132.7h8.1c.4,0,.8.4.8.8h0c0,.4-.4.8-.8.8h-8.1c-.4,0-.8-.4-.8-.8h0c0-.4.4-.8.8-.8Z"/>
          <path class="cls-11" d="M64.6,132.4h0c.6,0,1.1.5,1.1,1.1h0c0,.6-.5,1.1-1.1,1.1h0c-.6,0-1.1-.5-1.1-1.1h0c0-.6.5-1.1,1.1-1.1Z"/>
        </g>
      </g>
      <rect class="cls-5" x="60" y="120" width="20" height="20"/>
    </g>
    <g>
      <path class="cls-7" d="M16.7,135.1l-3.4-3.4c1.4-2.1,1.1-5-.8-7-2.1-2.1-5.7-2.1-7.9,0-2.1,2.1-2.1,5.7,0,7.9,2,2,5.1,2.1,7.3.5l3.4,3.4c.4.4,1,.4,1.4,0,.3-.5.3-1,0-1.4ZM5.9,131.4c-1.5-1.5-1.5-3.9,0-5.4s3.9-1.5,5.4,0,1.5,3.9,0,5.4-3.9,1.5-5.4,0Z"/>
      <rect class="cls-5" y="120" width="20" height="20"/>
    </g>
    <g>
      <g>
        <path class="cls-7" d="M37.4,135.7l-2.3-2.3c.6-.9.5-2.2-.3-3s-2.5-.9-3.4,0-.9,2.5,0,3.4,2.2.9,3.2.2l2.3,2.3c.2.2.4.2.6,0,0-.2,0-.4,0-.6h0ZM32,133.3c-.6-.6-.6-1.7,0-2.3.6-.6,1.7-.6,2.3,0s.6,1.7,0,2.3-1.7.6-2.3,0Z"/>
        <path class="cls-7" d="M26.7,134.4l-2.6,1.4c-.7.4-1.7-.1-1.7-1v-8.7c0-.4.2-.8.6-1l3.7-2v11.2h0Z"/>
        <path class="cls-7" d="M31.9,135.4v1.4l-4.3-2.4v-11.2l4.3,2.4v3c-.5.2-1,.5-1.4.9-1.4,1.4-1.4,3.7,0,5.1.4.4.9.7,1.4.9h0Z"/>
        <path class="cls-7" d="M36.9,134.3c0-.2,0-.3,0-.5v-8.7c0-.8-.9-1.4-1.7-1l-2.6,1.4v2.9c1,0,2.1.4,2.7,1,1.1,1.1,1.4,2.8.7,4.1l.7.7h0Z"/>
      </g>
      <rect class="cls-5" x="20" y="120" width="20" height="20"/>
    </g>
    <g>
      <rect class="cls-5" x="40" y="120" width="20" height="20"/>
      <g>
        <polygon class="cls-7" points="50 129.8 42 127.5 50 125 58 127.5 50 129.8"/>
        <polygon class="cls-7" points="50 130.5 44.6 129.1 42 130.1 50 132.4 58 130.1 55.4 129.1 50 130.5"/>
        <polygon class="cls-7" points="50 133.1 44.6 131.7 42 132.7 50 135 58 132.7 55.4 131.7 50 133.1"/>
      </g>
    </g>
    <g>
      <rect class="cls-5" x="100" y="120" width="20" height="20"/>
      <g>
        <path class="cls-11" d="M116.4,133.4c0,.3-.2.5-.3.8l.5.7-.9.9-.7-.5c-.2.1-.5.3-.8.3l-.2.8h-1.3l-.2-.8c-.3,0-.5-.2-.8-.3l-.7.5-.9-.9.5-.7c0-.2-.3-.5-.3-.8l-.8-.2v-1.3l.8-.2c0-.3.2-.5.3-.8l-.5-.7.9-.9.7.5c.2-.1.5-.3.8-.3l.2-.8h1.3l.2.8c.3,0,.5.2.8.3l.7-.5.9.9-.5.7c0,.2.3.5.3.8l.8.2v1.3l-.8.2ZM113.4,130.9c-.9,0-1.7.8-1.7,1.7s.8,1.7,1.7,1.7,1.7-.8,1.7-1.7-.8-1.7-1.7-1.7Z"/>
        <g>
          <path class="cls-11" d="M104.7,124.6c0-.3.2-.5.5-.5h6.6c.3,0,.5.2.5.5v4.9h-3.4l-1.8-2.2h-2.5v-2.7h.1ZM112.3,134.7h-8.5c-.3,0-.5-.2-.5-.5v-5.8c0-.3.2-.5.5-.5h3.1l1.6,2c0,.1.2.2.4.2h4.2c.3,0,.5.2.5.5h.5v-.2c0-.5-.5-.8-1-.8h-.3v-4.9c0-.6-.5-1-1-1h-6.6c-.6,0-1,.5-1,1v2.7h-.3c-.6,0-1,.5-1,1v5.8c0,.6.5,1,1,1h8.5v-.5h0Z"/>
          <path class="cls-11" d="M105.9,125.3h5c.2,0,.3.1.3.3h0c0,.2-.1.3-.3.3h-5c-.2,0-.3-.1-.3-.3h0c0-.2.1-.3.3-.3Z"/>
          <path class="cls-11" d="M108.7,127.2h2.2c.2,0,.3.1.3.3h0c0,.2-.1.3-.3.3h-2.2c-.2,0-.3-.1-.3-.3h0c0-.2.1-.3.3-.3Z"/>
        </g>
      </g>
    </g>
    <g>
      <g>
        <rect class="cls-11" x="84" y="126.1" width="12" height="1.5" rx=".5" ry=".5"/>
        <rect class="cls-11" x="84" y="129.2" width="12" height="1.5" rx=".5" ry=".5"/>
        <rect class="cls-11" x="84" y="132.4" width="12" height="1.5" rx=".5" ry=".5"/>
      </g>
      <rect class="cls-5" x="80" y="120" width="20" height="20"/>
    </g>
  </g>
  <g>
    <path class="cls-12" d="M106.9,55.5c-.3,0-.7-.2-.9-.5-.3-.5-.2-1.1.3-1.5l5-3.6-5-3.6c-.5-.3-.6-1-.3-1.5s1-.6,1.5-.3l6.3,4.4c.3.2.5.5.5.9s-.2.7-.5.9l-6.3,4.4c-.2,0-.4.2-.6.2v.2Z"/>
    <rect class="cls-5" x="100" y="40" width="20" height="20"/>
  </g>
  <g>
    <g>
      <path class="cls-6" d="M76.1,42.5c-.9,0-1.7.8-1.7,1.7s.2,1,.6,1.3l-1.8,3.9c-.2.3-.3.6-.4.9-.2.5-.4.9-.7,1.4h-.2c-.5,0-1,.2-1.3.6-.3-.2-.6-.6-.9-1.1-.2-.3-.5-.6-.7-.9,0-.2,0-.4,0-.6,0-.9-.8-1.7-1.7-1.7s-1.7.8-1.7,1.7,0,.5.2.8c-.2.3-.4.7-.6.9,0,0,0,.2,0,.2h0c-.4.8-.7,1.7-1.1,2.6h0c-.9,0-1.7.8-1.7,1.7s.8,1.7,1.7,1.7,1.7-.8,1.7-1.7-.2-.9-.6-1.3c.3-.8.7-1.7,1.1-2.5,0,0,0-.2,0-.2,0-.3.3-.5.4-.7.2,0,.4,0,.7,0s.6,0,.8-.2c.2.2.4.5.6.7.4.5.9,1.1,1.4,1.5,0,.9.8,1.7,1.7,1.7s1.7-.8,1.7-1.7-.2-.9-.5-1.2c.3-.4.5-.9.7-1.4,0-.3.3-.6.4-.9l1.8-3.9h0c.9,0,1.7-.8,1.7-1.7s-.8-1.7-1.7-1.7Z"/>
      <circle class="cls-12" cx="76.1" cy="44.2" r=".7"/>
      <circle class="cls-12" cx="63.9" cy="55.8" r=".7"/>
      <circle class="cls-12" cx="67.3" cy="49.6" r=".7"/>
      <circle class="cls-12" cx="71.9" cy="53.3" r=".7"/>
    </g>
    <rect class="cls-5" x="60" y="40" width="20" height="20"/>
  </g>
  <g>
    <g>
      <path class="cls-6" d="M56.3,54.2l-.9-9.3c.3-.3.5-.6.5-1,0-.8-.6-1.4-1.4-1.4s-1.3.6-1.4,1.3l-7.2,2.3c-.2-.2-.5-.3-.8-.3-.8,0-1.4.6-1.4,1.4s.2.8.5,1l-.9,6.6c-.4.2-.8.7-.8,1.2,0,.8.6,1.4,1.4,1.4s1.1-.4,1.3-.8h9.9c.3.2.6.4,1,.4.8,0,1.4-.6,1.4-1.4s-.5-1.3-1.2-1.4ZM54.7,55.5h-9.5c-.2-.3-.4-.6-.7-.7l.8-6.2c.7,0,1.2-.7,1.2-1.4s0,0,0,0l7-2.2c.2.2.5.4.8.4l.9,9.3c-.3.2-.4.5-.5.9Z"/>
      <circle class="cls-12" cx="45.1" cy="47.2" r=".6"/>
      <circle class="cls-12" cx="43.9" cy="56.1" r=".6"/>
      <circle class="cls-12" cx="56.1" cy="55.6" r=".6"/>
      <circle class="cls-12" cx="54.5" cy="43.9" r=".6"/>
    </g>
    <rect class="cls-5" x="40" y="40" width="20" height="20"/>
  </g>
  <g>
    <g>
      <path class="cls-12" d="M26.9,55.4h-.1c-.4,0-.7-.3-.8-.7l-2.8-8.8c-.1-.4,0-.7.2-1,.2-.2.4-.3.7-.3s.2,0,.3,0l8.8,2.8c.4,0,.6.4.7.8,0,.4,0,.8-.4,1l-3.4,2.4-2.4,3.4c-.2.3-.5.4-.8.4Z"/>
      <polygon class="cls-3" points="29.3 50.9 26.9 54.4 24 45.6 32.9 48.4 29.3 50.9"/>
      <path class="cls-12" d="M35.5,53.5c-.4,0-.8-.2-1.1-.4-.3-.3-.4-.7-.4-1.1s.2-.8.4-1.1c.3-.3.7-.4,1.1-.4s.8.2,1.1.4c.6.6.6,1.5,0,2.1s-.7.4-1.1.4h0Z"/>
      <circle class="cls-3" cx="35.5" cy="52" r=".8"/>
    </g>
    <rect class="cls-5" x="20" y="40" width="20" height="20"/>
  </g>
  <g>
    <g>
      <path class="cls-1" d="M6.7,54.4c-.3,0-.5,0-.7-.3-.2-.2-.3-.4-.3-.7v-1.9c0,0,5.8-6.7,5.8-6.7l2.8,2.4-5.7,6.7-1.9.5h0Z"/>
      <path class="cls-6" d="M13.8,47.2l-2.1-1.8-5.3,6.3v1.8c-.2.3.2.6.4.5l1.7-.4,5.3-6.3h0Z"/>
      <rect class="cls-12" x="4" y="54.4" width="12" height=".9"/>
    </g>
    <rect class="cls-5" y="40" width="20" height="20"/>
  </g>
  <g>
    <rect class="cls-5" x="80" y="40" width="20" height="20"/>
    <g>
      <g>
        <path class="cls-3" d="M89,49.1h0l-2.3-.5-2.3.5c-.3,0-.6,0-.7-.3,0-.2,0-.5,0-.7l2.4-3.9c.3-.4.8-.3,1,0l2.5,4c0,0,.2.4,0,.6,0,.2-.3.3-.6.3h0ZM86.6,48h0l2.3.5-2.5-4-2.4,4,2.3-.4h.2Z"/>
        <g>
          <circle class="cls-3" cx="86.5" cy="44" r=".7"/>
          <circle class="cls-12" cx="86.5" cy="44" r=".4"/>
        </g>
        <g>
          <circle class="cls-3" cx="83.8" cy="48.6" r=".7"/>
          <circle class="cls-12" cx="83.8" cy="48.6" r=".4"/>
        </g>
        <g>
          <circle class="cls-3" cx="86.5" cy="48.2" r=".7"/>
          <circle class="cls-12" cx="86.5" cy="48.2" r=".4"/>
        </g>
        <g>
          <circle class="cls-3" cx="89.3" cy="48.6" r=".7"/>
          <circle class="cls-12" cx="89.3" cy="48.6" r=".4"/>
        </g>
      </g>
      <g>
        <path class="cls-3" d="M89.6,56.2h-6.1l1-4.8,4-1,1,5.7h0ZM84.4,55.5h4.5l-.7-4.2-3,.7-.7,3.5h-.1Z"/>
        <g>
          <circle class="cls-3" cx="88.4" cy="50.9" r=".8"/>
          <circle class="cls-12" cx="88.4" cy="50.9" r=".4"/>
        </g>
        <g>
          <circle class="cls-3" cx="84.8" cy="51.8" r=".8"/>
          <circle class="cls-12" cx="84.8" cy="51.8" r=".4"/>
        </g>
        <g>
          <circle class="cls-3" cx="83.9" cy="55.9" r=".8"/>
          <circle class="cls-12" cx="83.9" cy="55.9" r=".4"/>
        </g>
        <g>
          <circle class="cls-3" cx="89.2" cy="55.7" r=".8"/>
          <circle class="cls-12" cx="89.2" cy="55.7" r=".4"/>
        </g>
      </g>
      <g>
        <path class="cls-3" d="M94.1,56.4l-2.6-1.5v-2.9l2.6-1.5,2.6,1.5v2.9l-2.6,1.5ZM92.1,54.5l2,1.1,2-1.1v-2.2l-2-1.1-2,1.1v2.2Z"/>
        <g>
          <circle class="cls-3" cx="91.8" cy="52.2" r=".8"/>
          <circle class="cls-12" cx="91.8" cy="52.2" r=".4"/>
        </g>
        <g>
          <circle class="cls-3" cx="96.2" cy="52.2" r=".8"/>
          <circle class="cls-12" cx="96.2" cy="52.2" r=".4"/>
        </g>
        <g>
          <circle class="cls-3" cx="91.8" cy="54.8" r=".8"/>
          <circle class="cls-12" cx="91.8" cy="54.8" r=".4"/>
        </g>
        <g>
          <circle class="cls-3" cx="96.2" cy="54.8" r=".8"/>
          <circle class="cls-12" cx="96.2" cy="54.8" r=".4"/>
        </g>
        <g>
          <circle class="cls-3" cx="94.1" cy="50.8" r=".8"/>
          <circle class="cls-12" cx="94.1" cy="50.8" r=".4"/>
        </g>
        <g>
          <circle class="cls-3" cx="94.1" cy="56" r=".8"/>
          <circle class="cls-12" cx="94.1" cy="56" r=".4"/>
        </g>
      </g>
    </g>
  </g>
</svg>