<?xml version="1.0" encoding="utf-8"?>
<!-- Generator: Adobe Illustrator 28.1.0, SVG Export Plug-In . SVG Version: 6.00 Build 0)  -->
<svg version="1.1" id="레이어_1" xmlns="http://www.w3.org/2000/svg" xmlns:xlink="http://www.w3.org/1999/xlink" x="0px"
	 y="0px" width="90px" height="90px" viewBox="0 0 90 90" style="enable-background:new 0 0 90 90;" xml:space="preserve">
<style type="text/css">
	.st0{fill:none;}
	.st1{fill:#6796BF;}
</style>
<g>
	<rect x="30" class="st0" width="30" height="30"/>
	<g>
		<g>
			<path class="st1" d="M43.1,5.6h9.1c0.3,0,0.5,0.2,0.5,0.5v17.8c0,0.3-0.2,0.5-0.5,0.5H37.8c-0.3,0-0.5-0.2-0.5-0.5V11.1L43.1,5.6
				z M38.7,11.7h4.8V7.1L38.7,11.7z M38.7,13.1V23H51c0.2,0,0.3-0.2,0.3-0.3V7h-6.4v5.5c0,0.3-0.3,0.6-0.6,0.6H38.7z"/>
			<path class="st1" d="M49.5,20.9l-1.7-2.6c-0.1-0.2-0.4-0.2-0.6,0l-1.3,2.1L43.7,17c-0.1-0.2-0.4-0.2-0.6,0l-2.6,4
				c-0.1,0.2,0,0.5,0.3,0.5h5l0,0h3.4C49.4,21.4,49.6,21.1,49.5,20.9z"/>
			<circle class="st1" cx="48" cy="15.5" r="1.2"/>
		</g>
	</g>
</g>
<g>
	<rect class="st0" width="30" height="30"/>
	<g>
		<g>
			<path class="st1" d="M21,24.4H9v-5.5h12V24.4z M19,20.4h-7.8c-0.2,0-0.3,0.1-0.3,0.3l0,0c0,0.2,0.1,0.3,0.3,0.3H19
				c0.2,0,0.3-0.1,0.3-0.3l0,0C19.3,20.5,19.2,20.4,19,20.4z M19,22.1h-7.8c-0.2,0-0.3,0.1-0.3,0.3l0,0c0,0.2,0.1,0.3,0.3,0.3H19
				c0.2,0,0.3-0.1,0.3-0.3l0,0C19.3,22.2,19.2,22.1,19,22.1z"/>
			<path class="st1" d="M7.8,20.2h-1c-0.3,0-0.6-0.3-0.6-0.6v-6.5c0-0.3,0.3-0.6,0.6-0.6h16.3c0.3,0,0.6,0.3,0.6,0.6v6.5
				c0,0.3-0.3,0.6-0.6,0.6H22v-2.4H7.8V20.2z M9.3,13.8H7.8v1.5h1.5V13.8z"/>
			<path class="st1" d="M21,9.1v2.4H9V5.6h9L21,9.1z M19.7,8.9L18,7h-0.1v1.8c0,0,0,0.1,0.1,0.1L19.7,8.9C19.8,9,19.8,8.9,19.7,8.9z
				"/>
		</g>
	</g>
</g>
<g>
	<rect x="60" class="st0" width="30" height="30"/>
	<g>
		<g>
			<g>
				<path class="st1" d="M81.5,6.4h-13c-1.4,0-2.5,1.2-2.5,2.7v11.8c0,1.5,1.1,2.7,2.5,2.7h13c1.4,0,2.5-1.2,2.5-2.7V9.1
					C84,7.6,82.9,6.4,81.5,6.4z M68.2,20.9V9.1c0-0.2,0.2-0.4,0.3-0.4h6.1v12.6h-6.1C68.3,21.3,68.2,21.1,68.2,20.9z M81.8,20.9
					c0,0.2-0.2,0.4-0.3,0.4h-6.1V8.7h6.1c0.2,0,0.3,0.2,0.3,0.4V20.9z"/>
				<rect x="74" y="8.7" class="st1" width="1.9" height="12.6"/>
			</g>
			<g>
				<polygon class="st1" points="72.2,13.4 72.2,11.8 70.4,15 72.2,18.1 72.2,16.6 72.9,16.6 72.9,13.4 				"/>
				<polygon class="st1" points="77.8,16.6 77.9,18.2 79.6,14.9 77.7,11.9 77.7,13.4 77,13.4 77.1,16.7 				"/>
			</g>
		</g>
	</g>
</g>
<g>
	<rect y="30" class="st0" width="30" height="30"/>
	<g>
		<g>
			<path class="st1" d="M10.9,52.1l-5,2.1c-0.2,0.1-0.4-0.1-0.4-0.3V38.2c0-0.1,0.1-0.3,0.2-0.3l5-2.1c0.2-0.1,0.4,0.1,0.4,0.3v15.8
				C11.1,52,11,52.1,10.9,52.1z"/>
			<path class="st1" d="M17.4,54.3l-5-2.1c-0.1,0-0.2-0.2-0.2-0.3V36c0-0.2,0.2-0.4,0.4-0.3l5,2.1c0.1,0,0.2,0.2,0.2,0.3V54
				C17.8,54.2,17.6,54.4,17.4,54.3z"/>
			<path class="st1" d="M24.2,52.1l-5,2.1c-0.2,0.1-0.4-0.1-0.4-0.3V38.2c0-0.1,0.1-0.3,0.2-0.3l5-2.1c0.2-0.1,0.4,0.1,0.4,0.3v15.8
				C24.4,52,24.4,52.1,24.2,52.1z"/>
		</g>
	</g>
</g>
<g>
	<rect x="60" y="30" class="st0" width="30" height="30"/>
	<path class="st1" d="M66.7,40.6c-2.4,4.6-0.7,10.3,3.9,12.8s10.3,0.7,12.8-3.9s0.7-10.3-3.9-12.8S69.1,36,66.7,40.6z M82.3,48.9
		c-1.4,2.5-3.9,4.1-6.5,4.3c0.1-0.1,0.2-0.2,0.2-0.3c-0.1-0.2-0.3-0.4-0.5-0.4c-0.2-0.1-0.5,0-0.7-0.1s-0.4-0.2-0.6-0.3
		s-0.3-0.3-0.5-0.4c-0.2-0.1-0.4-0.1-0.7-0.2c-0.2-0.1-0.5-0.1-0.7-0.3C72,51.1,72,51,71.9,50.7c-0.1-0.2-0.2-0.4-0.4-0.5
		c-0.2-0.1-0.5-0.1-0.6-0.3c0.3-0.1,0.2-0.3,0.2-0.5s0.2-0.2,0.4-0.3c0.1-0.1,0.3-0.3,0.4-0.4c0.1-0.2,0.2-0.3,0.1-0.5
		c-0.1-0.3-0.2-0.8-0.4-1.1c0-0.1-0.1-0.2-0.2-0.3s0-0.2-0.1-0.3c-0.1-0.2-0.4-0.1-0.6-0.2c-0.4-0.2-0.6-0.7-1-0.8
		c-0.2,0-0.4,0.1-0.5,0.1s-0.1-0.2-0.3-0.2c-0.1,0-0.1,0.1-0.2,0.1c-0.3,0.2-1,0.5-0.9,0.9c0,0.1,0.1,0.1,0.1,0.3
		c0,0.1-0.1,0.2-0.1,0.3c0,0.2,0.1,0.4,0,0.6c-0.2-0.1-0.3,0.3-0.4,0.4c-0.1-0.3-0.2-0.7-0.3-1l0,0l0.1,0.1c0.3-0.1,0.1-0.2,0-0.4
		c-0.1-0.1-0.1-0.4,0-0.6c0.1,0.1,0.1,0.2,0.2,0.2c0.1-0.1,0-0.3-0.1-0.5c0-0.2,0-0.3,0.1-0.4c0.3-0.3,0.6,0.2,0.9-0.1
		c0.3-0.2,0.2-0.7,0-0.9c-0.2-0.1-0.2,0.1-0.4,0.1c-0.1-0.1-0.1-0.3-0.1-0.4c-0.5-0.1,0-0.8-0.3-1c-0.2-0.1-0.3,0.2-0.2,0.3
		c0,0.1,0.2,0.4-0.1,0.4c-0.1,0-0.2,0-0.2-0.1s0-0.1,0-0.2c0-0.1,0.1-0.1,0.1-0.2c0-0.1,0-0.1,0-0.2c0.2-0.7,0.4-1.4,0.8-2.1
		c0.1-0.2,0.2-0.3,0.3-0.4c0.2-0.1,0.7-0.1,0.7-0.3c0-0.1-0.1-0.1-0.2-0.2c0-0.1,0-0.1-0.1-0.2l0,0c0.1-0.2,0.3-0.3,0.4-0.5
		c0,0,0.1,0,0.2,0c0.2-0.1,0.2-0.2,0.2-0.4c0.2-0.2,0.4-0.3,0.5-0.5c0.1,0,0.1-0.1,0.2-0.1l0,0c0.2-0.1,0.3-0.2,0.5-0.3
		c0.1,0,0.1,0,0.2,0c0,0.1,0,0.2-0.1,0.3c0.1,0.1,0.2,0.2,0.4,0.2c-0.1,0.3-0.2,0.2-0.4,0.1c-0.2,0-0.3,0.2-0.5,0.2
		s-0.4-0.1-0.4,0.2c0,0.2,0.1,0.3-0.1,0.5c0,0.1,0.1,0.1,0.2,0.1c-0.1,0.2,0,0.3,0.1,0.5c0.1,0.1,0.2,0.5,0.4,0.2
		c0.1-0.1,0-0.1,0-0.3s0-0.1,0.1-0.2c0.1-0.2,0.2-0.4,0.3-0.1c0.1,0.2,0,0.5,0.3,0.2c0.1,0,0.2-0.1,0.2-0.2c0.1-0.1,0-0.1,0.1-0.2
		c0.2-0.3,0.3,0.1,0.5,0s0.3-0.2,0.5-0.3s0.4-0.1,0.6-0.1s0.4,0,0.6,0s0.3-0.1,0.5,0c0.1,0.1,0.4,0.3,0.5,0.1
		c-0.2-0.1-0.4-0.1-0.5-0.3c-0.1-0.1-0.1-0.3,0-0.5c0.2-0.2,0.7-0.4,1-0.5c0.2,0,0.9,0.1,1,0.4c0.2,0.4-0.7,0.2-0.8,0.5
		c0.2,0.3,0.5,0.1,0.7,0.3c-0.1,0.3-0.2,0.5,0.2,0.6l0.1,0.1c0.3,0.2,0.4,0.3,0.1,0.6c-0.2,0.2-0.4,0.3-0.6,0.5
		c-0.1,0-0.3,0.1-0.3,0.2c-0.1,0.1-0.1,0.3-0.1,0.4c-0.1,0.1-0.2,0.2-0.2,0.3c-0.1,0.1-0.1,0.3-0.1,0.4c0.1,0.1,0.1,0.4,0.1,0.5
		s0,0.2,0,0.3s-0.1,0.2-0.1,0.3c0,0.2,0.2,0.5,0.4,0.6c0.1,0.1,0.5,0.1,0.6,0.2c0.1,0.2-0.3,0.2-0.4,0.4c-0.1,0.1,0,0.1,0,0.2
		c0,0.1-0.1,0.1-0.2,0.3s-0.1,0.4-0.1,0.6c-0.1,0.3-0.2,0.3-0.1,0.6c0.1,0.6,0.5,0.6,1,0.6c0.4-0.1,0.9,0,1.3,0.2
		c0.2,0.1,0.3,0.3,0.6,0.2c0.2-0.1,0.3-0.2,0.6-0.2c0.1,0,0.2,0,0.2,0l0.3-0.8c-1.8-1.6-1.7-4.3-1.7-4.3s-0.5,0-0.7-0.9
		c0-0.2-0.3-0.1-0.3-0.2c-0.1-0.2,0.2-0.3,0.3-0.5c0-0.1,0-0.4,0-0.5c-0.2-0.2-0.2-0.3-0.1-0.5c-0.2-0.3-0.2-0.4-0.1-0.7
		s0-0.4-0.1-0.7s-0.3-0.3-0.6-0.5c-0.2-0.1-0.6-0.3-0.8-0.5c0.2-0.2,0.6,0.2,0.7-0.1c-0.2-0.2-0.4-0.1-0.7-0.2
		c-0.1,0-0.2-0.1-0.3-0.1c1.4-0.1,2.8,0.2,4.2,0.9C82.9,39.8,84.4,44.9,82.3,48.9z"/>
</g>
<g>
	<rect y="60" class="st0" width="30" height="30"/>
	<ellipse class="st1" cx="15" cy="73.4" rx="2.7" ry="2.7"/>
	<path class="st1" d="M16.3,81.4c0-1.7,0.7-3.2,1.8-4.3c-0.9-0.6-2-1-3.1-1c-2.5,0-4.6,1.7-5.5,4c-1.3-1.3-2-3.1-2-5.1
		c0-4.1,3.4-7.5,7.5-7.5s7.5,3.4,7.5,7.5c0,0.1,0,0.3,0,0.4c0.8,0,1.6,0.2,2.3,0.6c0-0.3,0.1-0.7,0.1-1c0-5.4-4.4-9.9-9.9-9.9
		S5.1,69.6,5.1,75s4.4,9.9,9.9,9.9c0.8,0,1.5-0.1,2.2-0.3C16.6,83.7,16.3,82.6,16.3,81.4z"/>
	<path class="st1" d="M26.6,81.4c0,2.4-1.9,4.3-4.3,4.3S18,83.8,18,81.4s1.9-4.3,4.3-4.3S26.6,79.1,26.6,81.4z M24.4,81.2L23,79.8
		c-0.1-0.1-0.4-0.1-0.5,0s-0.1,0.4,0,0.5l0.8,0.8h-3c-0.2,0-0.3,0.2-0.3,0.3c0,0.2,0.2,0.3,0.3,0.3h3l-0.8,0.8
		c-0.1,0.1-0.1,0.4,0,0.5s0.2,0.1,0.2,0.1s0.2,0,0.2-0.1l1.4-1.4C24.6,81.5,24.6,81.3,24.4,81.2z"/>
</g>
<g>
	<rect x="30" y="30" class="st0" width="30" height="30"/>
	<g>
		<g>
			<path class="st1" d="M56.3,49.7c0-0.1-0.1-0.1-0.2-0.1h-6.6l-1.8,1.7l1.5-1.1h5.4l-4.8,3.6h-5.4l1.5-1.1c-0.1,0-0.2,0-0.3,0
				c-0.2,0-0.4,0-0.6-0.1l-1.6,1.1h-8.1l2.5-1.9H44l-0.6-0.6h-0.8L43,51l-0.5-0.5l-1.1,0.8h-2.7l1.5-1.1h2.1l-0.6-0.6H40h-0.1
				l-6,4.4c-0.1,0-0.1,0.1-0.1,0.2c0,0.1,0.1,0.1,0.2,0.1h16.3h0.1l6-4.4C56.3,49.9,56.3,49.8,56.3,49.7z"/>
			<g>
				<path class="st1" d="M50.4,37.6c-1.3-1.3-3-2-4.8-2s-3.6,0.7-4.8,2c-2.5,2.5-2.7,5.8-0.6,8.6c0.3,0.4,0.6,0.7,1,1l3.5,3.4
					c0.2,0.2,0.6,0.4,0.9,0.4c0.3,0,0.7-0.1,0.9-0.4l3.5-3.4c0.4-0.4,0.8-0.7,1-1.1C53.1,43.5,52.9,40.1,50.4,37.6z M41.9,38.9
					c1-1,2.3-1.5,3.6-1.5c1.4,0,2.7,0.5,3.6,1.5c1.8,1.8,2,4.3,0.5,6.3c-0.2,0.3-0.4,0.5-0.8,0.8l-3.3,3.2L42.3,46
					c-0.3-0.3-0.6-0.6-0.8-0.8C39.9,43.1,40.1,40.7,41.9,38.9z"/>
				<circle class="st1" cx="45.6" cy="41.9" r="1.7"/>
			</g>
		</g>
	</g>
</g>
<g>
	<rect x="30" y="60" class="st0" width="30" height="30"/>
	<ellipse class="st1" cx="45" cy="73.4" rx="2.7" ry="2.7"/>
	<path class="st1" d="M46.3,81.4c0-1.7,0.7-3.2,1.8-4.3c-0.9-0.6-2-1-3.1-1c-2.5,0-4.6,1.7-5.5,4c-1.3-1.3-2-3.1-2-5.1
		c0-4.1,3.4-7.5,7.5-7.5s7.5,3.4,7.5,7.5c0,0.1,0,0.3,0,0.4c0.8,0,1.6,0.2,2.3,0.6c0-0.3,0.1-0.7,0.1-1c0-5.4-4.4-9.9-9.9-9.9
		s-9.9,4.4-9.9,9.9s4.4,9.9,9.9,9.9c0.8,0,1.5-0.1,2.2-0.3C46.6,83.7,46.3,82.6,46.3,81.4z"/>
	<path class="st1" d="M56.6,81.4c0,2.4-1.9,4.3-4.3,4.3c-2.4,0-4.3-1.9-4.3-4.3s1.9-4.3,4.3-4.3C54.7,77.1,56.6,79.1,56.6,81.4z
		 M54.4,81.2L53,79.8c-0.1-0.1-0.4-0.1-0.5,0s-0.1,0.4,0,0.5l0.8,0.8h-3c-0.2,0-0.3,0.2-0.3,0.3c0,0.2,0.2,0.3,0.3,0.3h3l-0.8,0.8
		c-0.1,0.1-0.1,0.4,0,0.5s0.2,0.1,0.2,0.1s0.2,0,0.2-0.1l1.4-1.4C54.6,81.5,54.6,81.3,54.4,81.2z"/>
</g>
<g>
	<g>
		<g>
			<path class="st1" d="M75,65.1c-5.4,0-9.9,4.4-9.9,9.9s4.4,9.9,9.9,9.9s9.9-4.4,9.9-9.9S80.4,65.1,75,65.1z M69.5,80.1
				c0.2,0.2,0.3,0.3,0.5,0.5C69.9,80.5,69.7,80.3,69.5,80.1z M70.1,80.7c0.2,0.2,0.4,0.3,0.6,0.4C70.5,81,70.3,80.8,70.1,80.7z
				 M80,80.6c0.2-0.2,0.3-0.3,0.5-0.5C80.3,80.3,80.1,80.5,80,80.6z M79.3,81.1c0.2-0.1,0.4-0.3,0.6-0.4
				C79.7,80.8,79.5,81,79.3,81.1z M80.5,80.1c-0.9-2.4-3-4-5.5-4s-4.6,1.7-5.5,4c-1.3-1.3-2-3.1-2-5.1c0-4.1,3.4-7.5,7.5-7.5
				s7.5,3.4,7.5,7.5C82.5,77,81.7,78.8,80.5,80.1z"/>
			<ellipse class="st1" cx="75" cy="73.4" rx="2.7" ry="2.7"/>
		</g>
	</g>
	<rect x="60" y="60" class="st0" width="30" height="30"/>
</g>
</svg>
