<?xml version="1.0" encoding="UTF-8"?>
<svg id="_레이어_1" data-name="레이어 1" xmlns="http://www.w3.org/2000/svg" width="20" height="20" version="1.1" viewBox="0 0 20 20">
  <defs>
    <style>
      .cls-1 {
        fill: none;
      }

      .cls-1, .cls-2 {
        stroke-width: 0px;
      }

      .cls-2 {
        fill: #fff;
      }
    </style>
  </defs>
  <g>
    <path class="cls-2" d="M10,18.5c-4.7,0-8.5-3.8-8.5-8.5S5.3,1.5,10,1.5s8.5,3.8,8.5,8.5-3.8,8.5-8.5,8.5ZM10,2.4c-4.2,0-7.6,3.4-7.6,7.6s3.4,7.6,7.6,7.6,7.6-3.4,7.6-7.6-3.4-7.6-7.6-7.6Z"/>
    <g>
      <ellipse class="cls-2" cx="10" cy="6.9" rx="1.5" ry="1.5"/>
      <path class="cls-2" d="M11.5,13v-3.5c0-.1,0-.2-.2-.2h-2.6c-.1,0-.2,0-.2.2v4.9c0,.1,0,.2.2.2h4.1c.2,0,.3-.3.1-.4l-1.3-1.1s0-.1,0-.2Z"/>
    </g>
  </g>
  <rect class="cls-1" width="20" height="20"/>
</svg>