<svg width="20" height="20" viewBox="0 0 20 20" fill="none" xmlns="http://www.w3.org/2000/svg">
<g clip-path="url(#clip0_1105_3767)">
<g opacity="0.65">
<path d="M18.5 9.73978L16.69 11.3698L15.44 10.7398L14.19 11.3698L12.94 10.7398L11.69 11.3698L10.44 10.7398L9.19 11.3698L8.34 10.9398C7.93 12.4098 6.58 13.4898 4.98 13.4898C3.06 13.4898 1.5 11.9298 1.5 10.0098C1.5 8.08979 3.06 6.52979 4.98 6.52979C6.42 6.52979 7.66 7.39978 8.19 8.64978H16.22L18.5 9.74978V9.73978ZM3.3 9.12979C2.82 9.12979 2.43 9.51978 2.43 9.99978C2.43 10.4798 2.82 10.8698 3.3 10.8698C3.78 10.8698 4.17 10.4798 4.17 9.99978C4.17 9.51978 3.78 9.12979 3.3 9.12979Z" fill="white"/>
</g>
</g>
<defs>
<clipPath id="clip0_1105_3767">
<rect width="20" height="20" fill="white"/>
</clipPath>
</defs>
</svg>
