<svg width="20" height="20" viewBox="0 0 20 20" fill="none" xmlns="http://www.w3.org/2000/svg">
<g clip-path="url(#clip0_1105_3762)">
<g opacity="0.65">
<path d="M16.48 5.37988H3.51999C3.24999 5.37988 3.14999 5.72988 3.37999 5.86988L6.95999 8.74988C7.81999 9.43988 8.88999 9.81988 9.99999 9.81988C11.11 9.81988 12.18 9.43988 13.04 8.74988L16.62 5.86988C16.84 5.72988 16.74 5.37988 16.48 5.37988Z" fill="white"/>
<path d="M10.3908 10.9399H9.61079C9.25078 10.9399 8.89079 11.0299 8.58079 11.2199L3.46079 14.1599C3.24079 14.2899 3.33079 14.6199 3.58079 14.6199H16.4108C16.6708 14.6199 16.7608 14.2799 16.5308 14.1599L11.4108 11.2199C11.1008 11.0399 10.7408 10.9399 10.3808 10.9399H10.3908Z" fill="white"/>
<path d="M7.03 10.8401L2.5 13.6101V6.39014L7.08 10.2101C7.29 10.3801 7.26 10.7101 7.03 10.8501V10.8401Z" fill="white"/>
<path d="M12.9707 10.8401L17.5007 13.6101V6.39014L12.9207 10.2101C12.7107 10.3801 12.7407 10.7101 12.9707 10.8501V10.8401Z" fill="white"/>
</g>
</g>
<defs>
<clipPath id="clip0_1105_3762">
<rect width="20" height="20" fill="white"/>
</clipPath>
</defs>
</svg>
