<?xml version="1.0" encoding="UTF-8"?>
<svg id="_레이어_1" data-name="레이어 1" xmlns="http://www.w3.org/2000/svg" width="15" height="15" version="1.1" viewBox="0 0 15 15">
  <defs>
    <style>
      .cls-1 {
        fill: none;
      }

      .cls-1, .cls-2 {
        stroke-width: 0px;
      }

      .cls-2 {
        fill: #fff;
      }
    </style>
  </defs>
  <path class="cls-2" d="M9.5,10.5c-.2,0-.3,0-.4-.2l-1.6-1.7-1.6,1.7c-.1.1-.3.2-.4.2h0c-.2,0-.3,0-.4-.2l-.4-.4c-.1-.1-.2-.3-.2-.4,0-.2,0-.3.2-.4l1.7-1.6-1.7-1.6c-.1-.1-.2-.3-.2-.4s0-.3.2-.4l.4-.4c.1-.1.3-.2.4-.2h0c.2,0,.3,0,.4.2l1.6,1.7,1.6-1.7c.1-.1.3-.2.4-.2h0c.2,0,.3,0,.4.2l.4.4c.1.1.2.3.2.4s0,.3-.2.4l-1.7,1.6,1.7,1.6c.1.1.2.3.2.4,0,.2,0,.3-.2.4l-.4.4c-.1.1-.3.2-.4.2h0Z"/>
  <rect class="cls-1" width="15" height="15"/>
</svg>