<?xml version="1.0" encoding="UTF-8"?>
<svg id="_레이어_1" data-name=" 레이어 1" xmlns="http://www.w3.org/2000/svg" width="160" height="20" version="1.1" viewBox="0 0 160 20">
  <defs>
    <style>
      .cls-1 {
        fill: #fbbc00;
      }

      .cls-1, .cls-2, .cls-3, .cls-4, .cls-5 {
        stroke-width: 0px;
      }

      .cls-2 {
        fill: none;
      }

      .cls-3 {
        fill: #000;
        fill-opacity: 0;
      }

      .cls-4 {
        fill: #12b5cb;
      }

      .cls-5 {
        fill: #fff;
      }
    </style>
  </defs>
  <g>
    <path class="cls-4" d="M136.8,7.4c0-.4-.3-.6-.6-.6h-5.4l-1.2-1.4h-5.2c-.6,0-1.1.5-1.1,1.1v7.5c0,.6.5,1.1,1.1,1.1h11.3c.6,0,1.1-.5,1.1-1.1h0v-6.6h0Z"/>
    <rect class="cls-2" x="120" width="20" height="20"/>
  </g>
  <g>
    <path class="cls-1" d="M156.8,7.4c0-.4-.3-.6-.6-.6h-5.4l-1.2-1.4h-5.2c-.6,0-1.1.5-1.1,1.1v7.5c0,.6.5,1.1,1.1,1.1h11.3c.6,0,1.1-.5,1.1-1.1h0v-6.6h0Z"/>
    <rect class="cls-2" x="140" width="20" height="20"/>
  </g>
  <g>
    <path class="cls-5" d="M116.8,7.4c0-.4-.3-.6-.6-.6h-5.4l-1.2-1.4h-5.2c-.6,0-1.1.5-1.1,1.1v7.5c0,.6.5,1.1,1.1,1.1h11.3c.6,0,1.1-.5,1.1-1.1h0s0-6.6,0-6.6Z"/>
    <rect class="cls-2" x="100" width="20" height="20"/>
  </g>
  <g>
    <rect class="cls-3" x="40" width="20" height="20"/>
    <path class="cls-4" d="M44.7,7.3c-.8,0-1.4-.6-1.4-1.4s.6-1.4,1.4-1.4,1.4.6,1.4,1.4-.6,1.4-1.4,1.4Z"/>
    <path class="cls-4" d="M44.7,5c-.6,0-1,.4-1,1s.4,1,1,1,1-.4,1-1-.5-1-1-1Z"/>
    <path class="cls-4" d="M55.5,7.2h-7.6c-.7,0-1.2-.5-1.2-1.2s.5-1.2,1.2-1.2h7.6c.7,0,1.2.5,1.2,1.2s-.5,1.2-1.2,1.2Z"/>
    <path class="cls-4" d="M47.9,5.2c-.4,0-.8.4-.8.8s.4.8.8.8h7.6c.4,0,.8-.4.8-.8s-.4-.8-.8-.8h-7.6Z"/>
    <path class="cls-4" d="M44.7,11.4c-.8,0-1.4-.6-1.4-1.4s.6-1.4,1.4-1.4,1.4.6,1.4,1.4-.6,1.4-1.4,1.4Z"/>
    <path class="cls-4" d="M44.7,9c-.6,0-1,.4-1,1s.4,1,1,1,1-.4,1-1-.5-1-1-1Z"/>
    <path class="cls-4" d="M55.5,11.2h-7.6c-.7,0-1.2-.5-1.2-1.2s.5-1.2,1.2-1.2h7.6c.7,0,1.2.5,1.2,1.2s-.5,1.2-1.2,1.2Z"/>
    <path class="cls-4" d="M47.9,9.2c-.4,0-.8.4-.8.8s.4.8.8.8h7.6c.4,0,.8-.4.8-.8s-.4-.8-.8-.8h-7.6Z"/>
    <path class="cls-4" d="M44.7,15.4c-.8,0-1.4-.6-1.4-1.4s.6-1.4,1.4-1.4,1.4.6,1.4,1.4-.6,1.4-1.4,1.4Z"/>
    <path class="cls-4" d="M44.7,13.1c-.6,0-1,.4-1,1s.4,1,1,1,1-.4,1-1-.5-1-1-1Z"/>
    <path class="cls-4" d="M55.5,15.2h-7.6c-.7,0-1.2-.5-1.2-1.2s.5-1.2,1.2-1.2h7.6c.7,0,1.2.5,1.2,1.2s-.5,1.2-1.2,1.2Z"/>
    <path class="cls-4" d="M47.9,13.2c-.4,0-.8.4-.8.8s.4.8.8.8h7.6c.4,0,.8-.4.8-.8s-.4-.8-.8-.8h-7.6Z"/>
  </g>
  <g>
    <g>
      <path class="cls-4" d="M71.8,16l-3.7-1.6h0V4.1h0l3.7,1.6h0v10.2s0,.1,0,0h0Z"/>
      <path class="cls-4" d="M76.7,14.4l-3.7,1.6h0V5.7h0l3.7-1.6h0v10.2h0Z"/>
      <path class="cls-4" d="M67.1,14.4l-3.7,1.6h0V5.7h0l3.7-1.6h0v10.2h0Z"/>
    </g>
    <rect class="cls-2" x="60" width="20" height="20"/>
  </g>
  <g>
    <rect class="cls-2" x="20" width="20" height="20" rx=".6" ry=".6"/>
    <g>
      <path class="cls-4" d="M30,11l-6.6-3.3c-.4-.2-.4-.9,0-1l6.6-2.9,6.6,2.9c.4.2.5.8,0,1,0,0-6.6,3.3-6.6,3.3Z"/>
      <path class="cls-4" d="M30,13.6l-6.7-3.4c-.4-.2-.4-.8,0-1h.5l6.2,3.1,6.2-3.1h.5c.4.2.4.8,0,1l-6.7,3.4Z"/>
      <path class="cls-4" d="M30,16.2l-6.7-3.4c-.4-.2-.4-.8,0-1h.5l6.2,3.1,6.2-3.1h.5c.4.2.4.8,0,1l-6.7,3.4Z"/>
    </g>
  </g>
  <g>
    <rect class="cls-2" x="80" width="20" height="20"/>
    <g>
      <path class="cls-4" d="M95.2,17.2h-10.3c-.4,0-.8-.3-.8-.8V3.6c0-.4.3-.8.8-.8h10.3c.4,0,.8.3.8.8v12.8c0,.4-.3.8-.8.8ZM84.8,3.4s-.2,0-.2.2v12.8s0,.2.2.2h10.3s.2,0,.2-.2V3.6s0-.2-.2-.2c0,0-10.3,0-10.3,0Z"/>
      <rect class="cls-4" x="86.9" y="5.6" width="6.2" height="1.3" rx=".6" ry=".6"/>
      <rect class="cls-4" x="86.9" y="9.4" width="6.2" height="1.3" rx=".6" ry=".6"/>
      <rect class="cls-4" x="86.9" y="13.1" width="6.2" height="1.3" rx=".6" ry=".6"/>
    </g>
  </g>
  <g>
    <g>
      <circle class="cls-1" cx="5.4" cy="5.4" r="1"/>
      <circle class="cls-1" cx="10" cy="5.4" r="1"/>
      <circle class="cls-1" cx="14.6" cy="5.4" r="1"/>
      <circle class="cls-1" cx="5.4" cy="10" r="1"/>
      <circle class="cls-1" cx="5.4" cy="14.6" r="1"/>
      <circle class="cls-1" cx="10" cy="10" r="1"/>
      <circle class="cls-1" cx="10" cy="14.6" r="1"/>
      <circle class="cls-1" cx="14.6" cy="10" r="1"/>
      <circle class="cls-1" cx="14.6" cy="14.6" r="1"/>
    </g>
    <rect class="cls-2" width="20" height="20"/>
  </g>
</svg>