<?xml version="1.0" encoding="UTF-8"?>
<svg id="_레이어_1" data-name=" 레이어 1" xmlns="http://www.w3.org/2000/svg" width="60" height="15" version="1.1" viewBox="0 0 60 15">
  <defs>
    <style>
      .cls-1 {
        fill: #fbbc00;
      }

      .cls-1, .cls-2 {
        stroke-width: 0px;
      }

      .cls-2 {
        fill: none;
      }
    </style>
  </defs>
  <g>
    <rect class="cls-2" x="30" width="15" height="15"/>
    <g>
      <rect class="cls-1" x="32.7" y="3.7" width="9.6" height="1"/>
      <rect class="cls-1" x="32.7" y="7" width="9.6" height="1"/>
      <rect class="cls-1" x="32.7" y="10.3" width="9.6" height="1"/>
    </g>
  </g>
  <g>
    <path class="cls-1" d="M51,10.7c0,0-.3,0-.4-.2-.2-.2-.2-.5,0-.7l2.5-2.4-2.5-2.4c-.2-.2-.2-.5,0-.7s.5-.2.7,0l2.9,2.7c0,0,.2.2.2.4s0,.3-.2.4l-2.9,2.7s-.2.1-.3.1h0Z"/>
    <rect class="cls-2" x="45" width="15" height="15"/>
  </g>
  <g>
    <rect class="cls-2" x="15" width="15" height="15"/>
    <g>
      <path class="cls-1" d="M26,12.5h-7c-.8,0-1.5-.7-1.5-1.5v-7c0-.8.7-1.5,1.5-1.5h7c.8,0,1.5.7,1.5,1.5v7c0,.8-.7,1.5-1.5,1.5ZM19,3.5c-.3,0-.6.3-.6.6v7c0,.3.3.6.6.6h7c.3,0,.6-.3.6-.6v-7c0-.3-.3-.6-.6-.6,0,0-7,0-7,0Z"/>
      <path class="cls-1" d="M24.9,8h-4.8c-.3,0-.5-.2-.5-.5s.2-.5.5-.5h4.8c.3,0,.5.2.5.5s-.2.5-.5.5Z"/>
    </g>
  </g>
  <g>
    <rect class="cls-2" width="15" height="15"/>
    <g>
      <path class="cls-1" d="M11,2.5h-7c-.8,0-1.5.7-1.5,1.5v7c0,.8.7,1.5,1.5,1.5h7c.8,0,1.5-.7,1.5-1.5v-7c0-.8-.7-1.5-1.5-1.5ZM11.5,11c0,.3-.3.6-.6.6H3.9c-.3,0-.6-.3-.6-.6v-7c0-.3.3-.6.6-.6h7c.3,0,.6.3.6.6v7Z"/>
      <path class="cls-1" d="M9.9,7h-1.9v-1.9c0-.3-.2-.5-.5-.5s-.5.2-.5.5v1.9h-1.9c-.3,0-.5.2-.5.5s.2.5.5.5h1.9v1.9c0,.3.2.5.5.5s.5-.2.5-.5v-1.9h1.9c.3,0,.5-.2.5-.5s-.2-.5-.5-.5Z"/>
    </g>
  </g>
</svg>