<?xml version="1.0" encoding="utf-8"?>
<!-- Generator: Adobe Illustrator 28.1.0, SVG Export Plug-In . SVG Version: 6.00 Build 0)  -->
<svg version="1.1" id="레이어_1" xmlns="http://www.w3.org/2000/svg" xmlns:xlink="http://www.w3.org/1999/xlink" x="0px"
	 y="0px" viewBox="0 0 30 30" style="enable-background:new 0 0 30 30;" xml:space="preserve">
<style type="text/css">
	.st0{fill:#FFFFFF;}
	.st1{fill:none;}
</style>
<g>
	<g>
		<g>
			<path class="st0" d="M23.3,16.5c-0.1,0.1-0.1,0.1-0.2,0.2c-0.2,0.2-0.5,0.3-0.8,0.3c-0.3,0-0.5-0.1-0.7-0.4L21,15.9
				c-0.1,1.1-0.5,2.1-1.1,3.1c-1.1,1.7-3,2.9-5,3.2c-2,0.3-4.1-0.3-5.7-1.6c-2.4-2-3.3-5.4-2-8.3c0.2-0.4,0.4-0.8,0.6-1.2
				c1.1-1.7,2.9-2.9,4.9-3.2c0.3-0.1,0.7,0,1,0.3C13.9,8.3,14,8.6,14,9c0,0.2-0.1,0.5-0.2,0.7c-0.2,0.3-0.5,0.5-0.8,0.5
				c-1.3,0.2-2.6,1-3.3,2.1c-0.8,1.2-1,2.7-0.6,4.1c0.4,1.4,1.5,2.5,2.8,3.1c1.8,0.7,4,0.2,5.4-1.2c0.2-0.2,0.3-0.4,0.5-0.6
				c0.4-0.6,0.6-1.3,0.7-2l-0.9,0.8c-0.4,0.4-1.1,0.4-1.5-0.1c-0.3-0.4-0.4-0.9-0.1-1.3c0.1-0.1,0.1-0.1,0.2-0.2l2.9-2.6
				c0.2-0.2,0.5-0.3,0.8-0.3c0.3,0,0.5,0.1,0.7,0.4l2.6,2.9C23.6,15.6,23.6,16.1,23.3,16.5L23.3,16.5z"/>
		</g>
	</g>
	<rect class="st1" width="30" height="30"/>
</g>
</svg>
