<?xml version="1.0" encoding="utf-8"?>
<!-- Generator: Adobe Illustrator 28.1.0, SVG Export Plug-In . SVG Version: 6.00 Build 0)  -->
<svg version="1.1" id="레이어_1" xmlns="http://www.w3.org/2000/svg" xmlns:xlink="http://www.w3.org/1999/xlink" x="0px"
	 y="0px" viewBox="0 0 30 30" style="enable-background:new 0 0 30 30;" xml:space="preserve">
<style type="text/css">
	.st0{fill:none;}
	.st1{fill:#FBBC00;}
</style>
<g>
	<rect class="st0" width="30" height="30"/>
	<g>
		<path class="st1" d="M13.4,25c-0.2,0-0.5-0.1-0.7-0.3c-0.3-0.3-0.4-0.8-0.1-1.2c-2.8-0.3-5.9-1.1-5.9-2.6c0-1.7,4.3-2.7,8.3-2.7
			s8.3,0.9,8.3,2.7c0,0.9-1.2,1.7-3.3,2.2c-0.1,0-0.2,0-0.2,0c-0.2,0-0.3,0-0.5-0.1l-0.8-0.4c-0.2-0.1-0.5-0.2-0.5-0.5
			c0-0.3,0.4-0.3,0.6-0.3c2.3-0.4,3.1-0.9,3.1-1.1c0-0.6-2.6-1.5-6.7-1.5s-6.7,0.9-6.7,1.5c0,0.4,1.5,1.1,4.2,1.4
			c0-0.1-0.1-0.2-0.1-0.4c0-0.2,0.1-0.5,0.3-0.7c0.2-0.2,0.4-0.3,0.7-0.3s0.5,0.1,0.7,0.3l1.2,1.2c0.2,0.2,0.3,0.4,0.3,0.7
			s-0.1,0.5-0.3,0.7L14,24.8C13.8,24.9,13.6,25,13.4,25z"/>
		<path class="st1" d="M15,18.7c-4.4,0-8,1.1-8,2.4c0,1.1,2.7,2.1,6.2,2.3l-0.3,0.3c-0.2,0.2-0.2,0.6,0,0.9c0.1,0.1,0.3,0.2,0.4,0.2
			c0.2,0,0.3-0.1,0.4-0.2l1.2-1.2c0.2-0.2,0.2-0.6,0-0.9l-1.2-1.2c-0.1-0.1-0.3-0.2-0.4-0.2c-0.2,0-0.3,0.1-0.4,0.2
			c-0.2,0.2-0.2,0.6,0,0.9l0.3,0.3c-3-0.2-5.2-0.9-5.2-1.7c0-1,3.1-1.8,7-1.8c3.9,0,7,0.8,7,1.8c0,0.6-1.6,1.1-3.3,1.4
			c-0.4,0-0.4,0.1,0,0.2l0.8,0.4c0.2,0.1,0.3,0.1,0.5,0.1c1.9-0.4,3-1.1,3-1.9C23,19.7,19.4,18.7,15,18.7z"/>
		<g>
			<path class="st1" d="M19.9,7.3c-1.3-1.3-3-2-4.9-2s-3.6,0.7-4.9,2c-2.5,2.5-2.7,5.8-0.6,8.6c0.3,0.4,0.6,0.7,1,1l3.6,3.5
				c0.2,0.2,0.6,0.4,0.9,0.4s0.7-0.1,0.9-0.4l3.5-3.4c0.4-0.4,0.8-0.7,1-1.1C22.6,13.1,22.3,9.8,19.9,7.3z M11.4,8.5
				c1-1,2.3-1.5,3.6-1.5s2.7,0.5,3.6,1.5c1.8,1.8,2,4.3,0.5,6.3c-0.2,0.3-0.5,0.5-0.8,0.8L15,18.8l-3.3-3.2
				c-0.3-0.3-0.6-0.6-0.8-0.8C9.4,12.8,9.5,10.3,11.4,8.5z"/>
			<circle class="st1" cx="15" cy="11.6" r="1.7"/>
		</g>
	</g>
</g>
</svg>
