<?xml version="1.0" encoding="utf-8"?>
<!-- Generator: Adobe Illustrator 28.1.0, SVG Export Plug-In . SVG Version: 6.00 Build 0)  -->
<svg version="1.1" id="레이어_1" xmlns="http://www.w3.org/2000/svg" xmlns:xlink="http://www.w3.org/1999/xlink" x="0px"
	 y="0px" viewBox="0 0 30 30" style="enable-background:new 0 0 30 30;" xml:space="preserve">
<style type="text/css">
	.st0{fill:#6796BF;}
	.st1{fill:none;}
</style>
<g>
	<g>
		<polygon class="st0" points="9.1,7.1 9.1,6.3 6.2,6.3 6.2,7.1 7.3,7.1 7.3,10.5 6.8,10.5 6.8,11.2 7.3,11.2 7.3,14.1 6.8,14.1 
			6.8,14.7 7.3,14.7 7.3,18.2 6.2,18.2 6.2,19 7.3,19 8,19 9.1,19 9.1,18.2 8,18.2 8,14.7 8.5,14.7 8.5,14.1 8,14.1 8,11.2 
			8.5,11.2 8.5,10.5 8,10.5 8,7.1 		"/>
		<polygon class="st0" points="23,23.8 23.8,23.8 23.8,20.9 23,20.9 23,22 19.3,22 19.3,21.5 18.6,21.5 18.6,22 15.5,22 15.5,21.5 
			14.8,21.5 14.8,22 11.1,22 11.1,20.9 10.3,20.9 10.3,22 10.3,22.7 10.3,23.8 11.1,23.8 11.1,22.7 14.8,22.7 14.8,23.2 15.5,23.2 
			15.5,22.7 18.6,22.7 18.6,23.2 19.3,23.2 19.3,22.7 23,22.7 		"/>
		<path class="st0" d="M23,6.2H11.1c-0.3,0-0.5,0.2-0.5,0.5v11.9c0,0.3,0.2,0.5,0.5,0.5H23c0.3,0,0.5-0.2,0.5-0.5V6.7
			C23.5,6.4,23.3,6.2,23,6.2z M21.8,12.1h-4.2V7.9h4.2V12.1z M16.6,7.9v4.2h-4.2V7.9H16.6z M12.3,13.1h4.2v4.2h-4.2V13.1z
			 M17.6,17.3v-4.2h4.2v4.2H17.6z"/>
	</g>
	<rect class="st1" width="30" height="30"/>
</g>
</svg>
