<?xml version="1.0" encoding="utf-8"?>
<!-- Generator: Adobe Illustrator 28.1.0, SVG Export Plug-In . SVG Version: 6.00 Build 0)  -->
<svg version="1.1" id="레이어_1" xmlns="http://www.w3.org/2000/svg" xmlns:xlink="http://www.w3.org/1999/xlink" x="0px"
	 y="0px" viewBox="0 0 30 30" style="enable-background:new 0 0 30 30;" xml:space="preserve">
<style type="text/css">
	.st0{fill:#FFFFFF;}
	.st1{fill:none;}
</style>
<g>
	<g>
		<g>
			<path class="st0" d="M19.9,7c-1.3-1.3-3-2-4.9-2s-3.6,0.7-4.9,2c-2.5,2.5-2.7,5.8-0.6,8.6c0.3,0.4,0.6,0.7,1,1l3.6,3.5
				c0.2,0.2,0.6,0.4,0.9,0.4s0.7-0.1,0.9-0.4l3.5-3.4c0.4-0.4,0.8-0.7,1-1.1C22.6,12.9,22.3,9.5,19.9,7z M11.4,8.2
				c1-1,2.3-1.5,3.6-1.5s2.7,0.5,3.6,1.5c1.8,1.8,2,4.3,0.5,6.3c-0.2,0.3-0.5,0.5-0.8,0.8L15,18.6l-3.3-3.2
				c-0.3-0.3-0.6-0.6-0.8-0.8C9.4,12.5,9.5,10.1,11.4,8.2z"/>
			<circle class="st0" cx="15" cy="11.3" r="1.7"/>
			<ellipse class="st0" cx="15" cy="24.1" rx="3" ry="0.9"/>
		</g>
	</g>
	<rect class="st1" width="30" height="30"/>
</g>
</svg>
