<?xml version="1.0" encoding="UTF-8"?>
<svg id="_레이어_1" data-name="레이어 1" xmlns="http://www.w3.org/2000/svg" width="20" height="20" version="1.1" viewBox="0 0 20 20">
  <defs>
    <style>
      .cls-1 {
        fill: none;
      }

      .cls-1, .cls-2 {
        stroke-width: 0px;
      }

      .cls-2 {
        fill: #ff4b5c;
      }
    </style>
  </defs>
  <g>
    <g>
      <path class="cls-2" d="M9.5,11.5c.2,0,.3,0,.4-.2.1-.1.2-.3.2-.4v-4.4c0-.2,0-.3-.2-.4-.1-.1-.3-.2-.4-.2s-.3,0-.4.2c-.1.1-.2.3-.2.4v4.4c0,.2,0,.3.2.4.1.1.3.2.5.2Z"/>
      <path class="cls-2" d="M10.1,12.7c-.2-.2-.3-.2-.6-.2s-.4,0-.6.2c-.2.2-.2.3-.2.6s0,.4.2.6c.2.2.3.2.6.2s.4,0,.6-.2c.2-.2.2-.3.2-.6s0-.4-.2-.6Z"/>
    </g>
    <path class="cls-2" d="M9.5,17.5c-4.1,0-7.5-3.4-7.5-7.5s3.4-7.5,7.5-7.5,7.5,3.4,7.5,7.5-3.4,7.5-7.5,7.5ZM9.5,4c-3.3,0-6,2.7-6,6s2.7,6,6,6,6-2.7,6-6-2.7-6-6-6Z"/>
  </g>
  <rect class="cls-1" width="20" height="20"/>
</svg>