<svg width="24" height="24" viewBox="0 0 24 24" fill="none" xmlns="http://www.w3.org/2000/svg">
<g clip-path="url(#clip0_1106_3776)">
<g filter="url(#filter0_d_1106_3776)">
<path d="M6.56491 3.32456L19.7949 11.0146C20.5649 11.4646 20.5649 12.5746 19.7949 13.0146L6.56491 20.7046C4.86491 21.6946 2.81491 20.1146 3.34491 18.2146L5.06491 12.0046L3.34491 5.79456C2.81491 3.89456 4.86491 2.31456 6.56491 3.30456V3.32456Z" fill="url(#paint0_linear_1106_3776)"/>
<path d="M7.42411 18.2246L5.25411 12.0146L3.08411 18.2246C2.66411 19.7446 3.88411 21.0546 5.25411 21.0146C6.62411 21.0546 7.84411 19.7346 7.42411 18.2246Z" fill="url(#paint1_linear_1106_3776)"/>
</g>
</g>
<defs>
<filter id="filter0_d_1106_3776" x="1" y="1" width="25.373" height="26.0156" filterUnits="userSpaceOnUse" color-interpolation-filters="sRGB">
<feFlood flood-opacity="0" result="BackgroundImageFix"/>
<feColorMatrix in="SourceAlpha" type="matrix" values="0 0 0 0 0 0 0 0 0 0 0 0 0 0 0 0 0 0 127 0" result="hardAlpha"/>
<feOffset dx="2" dy="2"/>
<feGaussianBlur stdDeviation="2"/>
<feColorMatrix type="matrix" values="0 0 0 0 0 0 0 0 0 0 0 0 0 0 0 0 0 0 0.75 0"/>
<feBlend mode="normal" in2="BackgroundImageFix" result="effect1_dropShadow_1106_3776"/>
<feBlend mode="normal" in="SourceGraphic" in2="effect1_dropShadow_1106_3776" result="shape"/>
</filter>
<linearGradient id="paint0_linear_1106_3776" x1="3.26491" y1="12.0146" x2="20.3849" y2="12.0146" gradientUnits="userSpaceOnUse">
<stop stop-color="#FF4B5C"/>
<stop offset="0.5" stop-color="#D63D46"/>
<stop offset="1" stop-color="#AA302F"/>
</linearGradient>
<linearGradient id="paint1_linear_1106_3776" x1="2.99411" y1="16.5146" x2="7.50411" y2="16.5146" gradientUnits="userSpaceOnUse">
<stop stop-color="#FF4B5C"/>
<stop offset="0.5" stop-color="#D63D46"/>
<stop offset="1" stop-color="#AA302F"/>
</linearGradient>
<clipPath id="clip0_1106_3776">
<rect width="24" height="24" fill="white"/>
</clipPath>
</defs>
</svg>
