<?xml version="1.0" encoding="UTF-8"?>
<svg id="_레이어_1" data-name="레이어 1" xmlns="http://www.w3.org/2000/svg" width="15" height="15" version="1.1" viewBox="0 0 15 15">
  <defs>
    <style>
      .cls-1 {
        fill: #6796bf;
        fill-rule: evenodd;
        stroke-width: 0px;
      }
    </style>
  </defs>
  <path class="cls-1" d="M7.5,11.7c-.4,0-.7-.1-.9-.4L.9,5.6c-.5-.5-.5-1.3,0-1.9.2-.2.6-.4.9-.4s.7.1.9.4l4.8,4.8,4.8-4.8c.2-.2.6-.4.9-.4s.7.1.9.4c.2.2.4.6.4.9s-.1.7-.4.9l-5.7,5.7c-.2.2-.6.4-.9.4Z"/>
</svg>