<?xml version="1.0" encoding="UTF-8"?>
<svg id="_레이어_1" data-name="레이어 1" xmlns="http://www.w3.org/2000/svg" width="20" height="100" version="1.1" viewBox="0 0 20 100">
  <defs>
    <style>
      .cls-1 {
        fill: none;
      }

      .cls-1, .cls-2 {
        stroke-width: 0px;
      }

      .cls-2 {
        fill: #fff;
      }
    </style>
  </defs>
  <g>
    <circle class="cls-2" cx="10" cy="26.5" r="3"/>
    <path class="cls-2" d="M17,36.5c0-3.9-2.8-7.1-6.3-7.1h-1.3c-3.5,0-6.3,3.2-6.3,7.1h13.9Z"/>
    <rect class="cls-1" y="20" width="20" height="20"/>
  </g>
  <g>
    <path class="cls-2" d="M16.5,45.4H3.5c-.3,0-.4.3-.1.5l3.6,2.9c.9.7,1.9,1.1,3,1.1h0c1.1,0,2.2-.4,3-1.1l3.6-2.9c.2-.1.1-.5-.1-.5Z"/>
    <path class="cls-2" d="M10.4,50.9h-.8c-.4,0-.7,0-1,.3l-5.1,2.9c-.2.1-.1.5.1.5h12.8c.3,0,.3-.3.1-.5l-5.1-2.9c-.3-.2-.7-.3-1-.3Z"/>
    <path class="cls-2" d="M7,50.8l-4.5,2.8v-7.2l4.6,3.8c.2.2.2.5,0,.6Z"/>
    <path class="cls-2" d="M13,50.8l4.5,2.8v-7.2s-4.6,3.8-4.6,3.8c-.2.2-.2.5,0,.6Z"/>
    <rect class="cls-1" y="40" width="20" height="20"/>
  </g>
  <g>
    <path class="cls-2" d="M18.5,89.7l-1.8,1.6-1.2-.6-1.2.6-1.2-.6-1.2.6-1.2-.6-1.2.6-.9-.4c-.4,1.5-1.8,2.5-3.4,2.5s-3.5-1.6-3.5-3.5,1.6-3.5,3.5-3.5,2.7.9,3.2,2.1h8l2.3,1.1ZM3.3,89.1c-.5,0-.9.4-.9.9s.4.9.9.9.9-.4.9-.9-.4-.9-.9-.9Z"/>
    <rect class="cls-1" y="80" width="20" height="20"/>
  </g>
  <g>
    <g>
      <path class="cls-2" d="M17.4,15.5H2.6c-.9,0-1.6-.7-1.6-1.5v-7.9c0-.9.7-1.5,1.6-1.5h14.8c.9,0,1.6.7,1.6,1.5v7.9c0,.9-.7,1.5-1.6,1.5ZM2.6,5.4c-.4,0-.7.3-.7.7v7.9c0,.4.3.7.7.7h14.8c.4,0,.7-.3.7-.7v-7.9c0-.4-.3-.7-.7-.7H2.6Z"/>
      <g>
        <g>
          <rect class="cls-2" x="10.4" y="7.1" width="3.3" height="1.3" rx=".7" ry=".7"/>
          <rect class="cls-2" x="10.4" y="11.9" width="5.4" height="1.3" rx=".7" ry=".7"/>
          <rect class="cls-2" x="10.4" y="9.5" width="6.4" height="1.3" rx=".7" ry=".7"/>
        </g>
        <path class="cls-2" d="M7,9.8c.6-.3,1-1,.9-1.7s-.6-1.1-1.3-1.3c-1.1-.2-2,.6-2,1.6s.4,1.2.9,1.4c-1.2.4-2.1,1.5-2.2,2.9s.2.5.5.5h5c.3,0,.5-.2.5-.5-.2-1.4-1.1-2.5-2.2-2.9Z"/>
      </g>
    </g>
    <rect class="cls-1" width="20" height="20"/>
  </g>
  <g>
    <path class="cls-2" d="M13.9,78h-7.9c-.8,0-1.5-.7-1.5-1.5v-13c0-.8.7-1.5,1.5-1.5h7.9c.8,0,1.5.7,1.5,1.5v13c0,.8-.7,1.5-1.5,1.5ZM10,76c-.3,0-.5.2-.5.5s.2.5.5.5.5-.2.5-.5-.2-.5-.5-.5ZM14.4,74.8v-9.9c0-.3-.2-.5-.5-.5h-7.9c-.3,0-.5.2-.5.5v9.9c0,.3.2.5.5.5h7.9c.3,0,.5-.2.5-.5ZM11.4,63.2h-2.7v.3h2.7v-.3Z"/>
    <rect class="cls-1" y="60" width="20" height="20"/>
  </g>
</svg>