<?xml version="1.0" encoding="UTF-8"?>
<svg id="_레이어_1" data-name="레이어 1" xmlns="http://www.w3.org/2000/svg" width="35" height="35" version="1.1" viewBox="0 0 35 35">
  <defs>
    <style>
      .cls-1 {
        fill: none;
      }

      .cls-1, .cls-2 {
        stroke-width: 0px;
      }

      .cls-2 {
        fill: #fe0041;
        fill-rule: evenodd;
      }
    </style>
  </defs>
  <path class="cls-2" d="M17.5,8.7c-4.8,0-8.8,3.9-8.8,8.8s3.9,8.8,8.8,8.8,8.8-3.9,8.8-8.8-3.9-8.8-8.8-8.8ZM18.7,17.5l4.6-4.6c1,1.3,1.6,2.9,1.6,4.6s-.6,3.3-1.6,4.6l-4.6-4.6ZM22.1,11.7l-4.6,4.6-4.6-4.6c1.3-1,2.9-1.6,4.6-1.6s3.3.6,4.6,1.6ZM11.7,12.9l4.6,4.6-4.6,4.6c-1-1.3-1.6-2.9-1.6-4.6s.6-3.3,1.6-4.6ZM12.9,23.3l4.6-4.6,4.6,4.6c-1.3,1-2.9,1.6-4.6,1.6s-3.3-.6-4.6-1.6Z"/>
  <rect class="cls-1" width="35" height="35"/>
</svg>